<?xml version="1.0" standalone="no"?>
<!DOCTYPE svg PUBLIC "-//W3C//DTD SVG 1.1//EN" "http://www.w3.org/Graphics/SVG/1.1/DTD/svg11.dtd" >
<svg xmlns="http://www.w3.org/2000/svg">
<metadata>
Created by FontForge 20120731 at Sat Sep  3 10:50:25 2016
 By admin
</metadata>
<defs>
<font id="iconfont" horiz-adv-x="1024" >
  <font-face 
    font-family="iconfont"
    font-weight="500"
    font-stretch="normal"
    units-per-em="1024"
    panose-1="2 0 6 3 0 0 0 0 0 0"
    ascent="896"
    descent="-128"
    x-height="792"
    bbox="0 -128 1103 896"
    underline-thickness="50"
    underline-position="-100"
    unicode-range="U+0078-E64C"
  />
<missing-glyph horiz-adv-x="374" 
d="M34 0v682h272v-682h-272zM68 34h204v614h-204v-614z" />
    <glyph glyph-name=".notdef" horiz-adv-x="374" 
d="M34 0v682h272v-682h-272zM68 34h204v614h-204v-614z" />
    <glyph glyph-name=".null" horiz-adv-x="0" 
 />
    <glyph glyph-name="nonmarkingreturn" horiz-adv-x="341" 
 />
    <glyph glyph-name="x" unicode="x" horiz-adv-x="1001" 
d="M281 543q-27 -1 -53 -1h-83q-18 0 -36.5 -6t-32.5 -18.5t-23 -32t-9 -45.5v-76h912v41q0 16 -0.5 30t-0.5 18q0 13 -5 29t-17 29.5t-31.5 22.5t-49.5 9h-133v-97h-438v97zM955 310v-52q0 -23 0.5 -52t0.5 -58t-10.5 -47.5t-26 -30t-33 -16t-31.5 -4.5q-14 -1 -29.5 -0.5
t-29.5 0.5h-32l-45 128h-439l-44 -128h-29h-34q-20 0 -45 1q-25 0 -41 9.5t-25.5 23t-13.5 29.5t-4 30v167h911zM163 247q-12 0 -21 -8.5t-9 -21.5t9 -21.5t21 -8.5q13 0 22 8.5t9 21.5t-9 21.5t-22 8.5zM316 123q-8 -26 -14 -48q-5 -19 -10.5 -37t-7.5 -25t-3 -15t1 -14.5
t9.5 -10.5t21.5 -4h37h67h81h80h64h36q23 0 34 12t2 38q-5 13 -9.5 30.5t-9.5 34.5q-5 19 -11 39h-368zM336 498v228q0 11 2.5 23t10 21.5t20.5 15.5t34 6h188q31 0 51.5 -14.5t20.5 -52.5v-227h-327z" />
    <glyph glyph-name="uniE600" unicode="&#xe600;" horiz-adv-x="1000" 
d="M982 659l-188 187q-18 19 -44 19h-656q-39 0 -66.5 -27.5t-27.5 -66.5v-750q0 -39 27.5 -66.5t66.5 -27.5h812q39 0 66.5 27.5t27.5 66.5v594q0 26 -18 44zM938 21q0 -13 -9.5 -22t-22.5 -9h-812q-13 0 -22.5 9t-9.5 22v750q0 13 9.5 22t22.5 9h625v-125q0 -39 27.5 -66
t65.5 -27h126v-563zM844 615h-32q-25 0 -43.5 18t-18.5 44v125l188 -187h-94zM484 646q-6 0 -10.5 4.5t-4.5 11t4.5 11t10.5 4.5h157q6 0 10.5 -4.5t4.5 -11t-4.5 -11t-10.5 -4.5h-157zM484 552q-6 0 -10.5 4.5t-4.5 11t4.5 11.5t10.5 5h157q6 0 10.5 -5t4.5 -11.5t-4.5 -11
t-10.5 -4.5h-157zM469 474.5q0 6.5 4.5 11t10.5 4.5h375q7 0 11.5 -4.5t4.5 -11t-4.5 -11.5t-11.5 -5h-375q-6 0 -10.5 5t-4.5 11.5zM859 302q7 0 11.5 -4.5t4.5 -11t-4.5 -11t-11.5 -4.5h-718q-7 0 -11.5 4.5t-4.5 11t4.5 11t11.5 4.5h718zM859 208q7 0 11.5 -4.5t4.5 -11
t-4.5 -11t-11.5 -4.5h-718q-7 0 -11.5 4.5t-4.5 11t4.5 11t11.5 4.5h718zM859 115q7 0 11.5 -4.5t4.5 -11t-4.5 -11t-11.5 -4.5h-718q-7 0 -11.5 4.5t-4.5 11t4.5 11t11.5 4.5h718zM859 396q7 0 11.5 -4.5t4.5 -11t-4.5 -11t-11.5 -4.5h-718q-7 0 -11.5 4.5t-4.5 11t4.5 11
t11.5 4.5h718zM156 458h219q13 0 22 9.5t9 22.5v187q0 13 -9 22t-22 9h-219q-13 0 -22 -9t-9 -22v-187q0 -13 9 -22.5t22 -9.5zM188 646h156v-125h-156v125z" />
    <glyph glyph-name="uniE601" unicode="&#xe601;" 
d="M152 554l224 -60q4 -1 8 -1q11 0 19.5 6.5t11.5 17.5q3 12 -3.5 23.5t-19.5 15.5l-224 60q-12 3 -23.5 -3.5t-15 -19.5t3 -24.5t19.5 -14.5zM152 234l224 -60q4 -1 8 -1q11 0 19.5 6.5t11.5 17.5q3 12 -3.5 23.5t-19.5 15.5l-224 60q-12 3 -23.5 -3.5t-15 -19.5t3 -24.5
t19.5 -14.5zM152 394l224 -60q4 -1 8 -1q11 0 19.5 6.5t11.5 17.5q3 12 -3.5 23.5t-19.5 15.5l-224 60q-12 3 -23.5 -3.5t-15 -19.5t3 -24.5t19.5 -14.5zM609 357q3 -11 11.5 -17.5t19.5 -6.5q4 0 8 1l224 60q13 3 19.5 14.5t3 24.5t-15 19.5t-23.5 3.5l-224 -60
q-13 -4 -19.5 -15.5t-3.5 -23.5zM663 20l-119 -32v702l416 111v-425q2 0 5.5 0.5t5.5 0.5q24 0 53 -4v470q0 16 -13 25q-12 10 -27 6l-472 -126l-472 126q-15 4 -27 -6q-13 -9 -13 -25v-768q0 -11 6.5 -19.5t17.5 -11.5l480 -128q4 -1 8 -1t8 1l155 41q-9 31 -12 63z
M480 -12l-416 112v701l416 -111v-702zM640 493q4 0 8 1l224 60q13 3 19.5 14.5t3 24.5t-15 19.5t-23.5 3.5l-224 -60q-13 -4 -19.5 -15.5t-3.5 -24.5q3 -10 11.5 -16.5t19.5 -6.5zM640 173zM1024 208q0 5 -4 9q-3 4 -9 4h-18q-15 0 -19 13l-10 24q-6 13 4 23l13 13q4 4 4 9
t-4 9l-23 22q-3 4 -8.5 4t-8.5 -4l-14 -13q-10 -10 -22 -3l-24 9q-14 5 -14 19v19q0 5 -3.5 8.5t-8.5 3.5h-32q-5 0 -9 -3.5t-4 -8.5v-19q0 -15 -13 -19l-24 -9q-12 -8 -23 3l-13 13q-4 4 -9 4t-9 -4l-22 -23q-4 -3 -4 -8t4 -9l13 -14q10 -9 3 -22l-9 -24q-5 -14 -19 -14
h-19q-5 0 -8.5 -3.5t-3.5 -8.5v-32q0 -5 3.5 -9t8.5 -4h19q14 0 19 -13l9 -24q7 -13 -3 -23l-13 -13q-4 -4 -4 -9t4 -9l22 -22q4 -4 9 -4t9 4l13 13q10 10 23 3l24 -9q13 -5 13 -19v-19q0 -5 4 -9q4 -3 9 -3h32q5 0 8.5 3.5t3.5 8.5v19q0 14 14 19l24 9q12 7 22 -3l14 -13
q4 -4 9 -4t8 4l23 22q4 4 4 9t-4 9l-13 13q-10 10 -4 23l10 24q4 13 19 13h19q5 0 8.5 4t3.5 9v32zM910 192q0 -30 -21 -50.5t-50.5 -20.5t-50 20.5t-20.5 50t20.5 50.5t50 21t50.5 -21t21 -50z" />
    <glyph glyph-name="uniE602" unicode="&#xe602;" 
d="M854 -28h-684v371h57v-314h570v314h57v-371zM919 352l-407 434l-407 -434l-42 39l449 479l449 -479zM626 143h-57v200h-114v-200h-57v257h228v-257z" />
    <glyph glyph-name="uniE603" unicode="&#xe603;" 
d="M567 770h-265q-21 0 -36 -15t-15 -36v-252q0 -21 15 -36t36 -15h265q21 0 36 15t15 36v252q0 21 -15 36t-36 15zM561 482h-59l-18 53h-91l-18 -53h-58l89 242h65zM474 577l-30 84q-3 11 -6 20h-1q-1 -12 -5 -21l-27 -83h69zM443 382h-264q-22 0 -37 -15t-15 -36v-252
q0 -21 15 -36t37 -15h264q22 0 37 15t15 36v252q0 21 -15 36t-37 15zM844 382h-265q-21 0 -36 -15t-15 -36v-252q0 -21 15 -36t36 -15h265q21 0 36 15t15 36v252q0 21 -15 36t-36 15zM319 78h-117v242h112q80 -2 85 -57q0 -43 -47 -57q50 -11 57 -56q0 -72 -90 -72zM305 280
h-49v-58h49q35 2 36 31q-1 27 -36 27zM311 182h-55v-65h54q40 0 41 33q-3 31 -40 32zM822 250l-52 -12q-11 37 -50 39q-56 -3 -59 -78q2 -75 59 -80q44 1 52 54l52 -16q-18 -83 -104 -83q-111 6 -117 125q6 118 117 125q78 -3 102 -74z" />
    <glyph glyph-name="uniE604" unicode="&#xe604;" 
d="M512 768l-387 -384h131v-384h192v256h128v-256h192v384h127z" />
    <glyph glyph-name="uniE605" unicode="&#xe605;" horiz-adv-x="1104" 
d="M552 893q-97 0 -184.5 -36.5t-150.5 -97.5t-99.5 -146t-35.5 -178q0 -92 35 -174t99 -146v-105v-100v-38l211 118q64 -16 125 -16q97 0 184.5 36t151 97t101 146t37.5 179t-37.5 179.5t-101 147t-151 98t-184.5 36.5zM299 358q-35 0 -59 24.5t-24 59.5q0 33 25 58t58 25
q36 0 60 -24.5t24 -58.5q0 -36 -24.5 -60t-59.5 -24zM552 358q-35 0 -59 24.5t-24 59.5q0 33 25 58t58 25q36 0 59.5 -24.5t23.5 -58.5q0 -36 -23.5 -60t-59.5 -24zM805 358q-36 0 -59.5 24.5t-23.5 59.5q0 33 24.5 58t58.5 25q35 0 59 -24.5t24 -58.5q0 -36 -23.5 -60
t-59.5 -24z" />
    <glyph glyph-name="uniE606" unicode="&#xe606;" 
d="M1006 369q-12 -12 -29 -12.5t-29 11.5l-428 409l-430 -420q-12 -12 -29 -11.5t-29 12.5t-11.5 29t12.5 29l428 418q13 17 53 51l6 5l485 -464q12 -12 12.5 -28.5t-11.5 -28.5zM840 -102h-636q-22 0 -36.5 15t-14.5 36v305h76v-280h586v280h76v-305q0 -21 -15 -36t-36 -15
z" />
    <glyph glyph-name="uniE607" unicode="&#xe607;" 
d="M957 684v0q-2 7 -9 11q-1 2 -2 2q-7 4 -14 4h-842q-7 0 -14 -4l-2 -2q-7 -4 -9 -11v0q-2 -6 -2 -10v-579q0 -11 8 -19t19 -8h421h421q11 0 19 8t8 19v579q0 4 -2 10zM864 647l-353 -330l-353 330h706zM511 122h-394v490l376 -352q7 -7 18 -7t19 7l375 352v-490h-394z" />
    <glyph glyph-name="uniE608" unicode="&#xe608;" 
d="M966 41h-896q-22 0 -38 13.5t-16 32.5v607q0 19 16 32.5t38 13.5h896q23 0 39 -13.5t16 -32.5v-607q0 -19 -16 -32.5t-39 -13.5zM70 706q-8 0 -14 -4t-6 -8v-607q0 -5 6 -8.5t14 -3.5h896q8 0 14 3.5t6 8.5v607q0 4 -6 8t-14 4h-896zM363 398l24 -24l-329 -329l-24 24z
M674 401l336 -336l-24 -24l-336 335zM516.5 226q-17.5 0 -29.5 13l-449 448l24 25l449 -449q2 -3 5.5 -3t5.5 3l452 452l24 -25l-451 -451q-13 -13 -30.5 -13z" />
    <glyph glyph-name="uniE609" unicode="&#xe609;" 
d="M938 338h-201q-13 -77 -73 -129.5t-140.5 -52.5t-140.5 52.5t-73 129.5h-208q-18 0 -31.5 13.5t-13.5 32.5t13.5 32.5t31.5 13.5h213q19 69 76.5 114t131.5 45t132 -45t77 -114h206q19 0 32.5 -13.5t13.5 -32.5t-13.5 -32.5t-32.5 -13.5z" />
    <glyph glyph-name="uniE60A" unicode="&#xe60a;" 
d="M193 209h43v-67h-44q-27 0 -46.5 19t-19.5 46v514q0 27 19.5 46.5t46.5 19.5h536q27 0 46 -19.5t19 -46.5v-45h-67v43h-533v-510zM927 587v-536q0 -27 -19 -46t-46 -19h-536q-27 0 -46.5 19t-19.5 46v536q0 27 19.5 46t46.5 19h536q27 0 46 -19t19 -46zM860 585h-533
v-532h533v532zM392 428h140q5 0 5 6v56v1q0 6 -5 6h-140q-6 0 -6 -6v-57q0 -6 6 -6zM392 284h316q5 0 5 6v57v1q0 5 -5 5h-316q-6 0 -6 -5v-58q0 -6 6 -6zM392 141h404q5 0 5 5v57v1q0 6 -5 6h-404q-6 0 -6 -6v-58q0 -5 6 -5zM392 141z" />
    <glyph glyph-name="uniE60B" unicode="&#xe60b;" 
d="M644 -62q0 22 -15.5 38.5t-37.5 17.5h-255q-23 0 -39.5 -16.5t-16.5 -39.5t16.5 -39.5t39.5 -16.5h255q22 1 37.5 17t15.5 39zM901 565l-310 309q-11 12 -28 12.5t-29 -11.5l-411 -402q-11 -12 -11.5 -28.5t11.5 -28.5l137 -141v3l190 -165h36q111 98 140 121l8 7v1
q-16 28 -29 54l-115 -116q-10 -9 -23 -9.5t-22 9.5l-240 246q-9 9 -8.5 22t9.5 23l328 321q10 9 23 9t22 -9l240 -237q9 -9 8.5 -22t-9.5 -23l-95 -95q7 -15 27 -58l151 151q11 12 11.5 28.5t-11.5 28.5zM280 234v-190q2 -4 5.5 -9.5t20 -14.5t39.5 -9h242q16 -3 30 10
q112 106 159 153q10 10 11.5 26t-2 29t-9.5 25l-76 162q0 1 -1.5 3t-6 6t-10.5 6.5t-16 2t-22 -5.5q-29 -13 -36.5 -29t-3.5 -44q3 -16 15 -42.5t24 -46.5l11 -19q2 -19 -10 -25q-5 -3 -42.5 -35t-72.5 -62.5t-35 -31.5h-52zM275 460l190 50l-56 55l27 27l64 -65l37 37
l-65 64l27 27l65 -65l53 53l33 -33l-53 -53l67 -67l-27 -27l-67 67l-36 -36l67 -67l-27 -27l-57 58l-50 -190l-38 38q41 138 54 172v1q-14 -6 -60 -20l-113 -34z" />
    <glyph glyph-name="uniE60C" unicode="&#xe60c;" horiz-adv-x="1025" 
d="M750 480q-6 -29 -27 -52l123 -73q5 25 23 40zM474 473l-164 -118q32 -25 49 -60l154 131q-26 18 -39 47zM274 324q-47 37 -104 37q-71 0 -120.5 -49.5t-49.5 -120t49.5 -120t120 -49.5t120 49.5t49.5 120.5q0 37 -16.5 72t-48.5 60zM603 649q-47 0 -80 -33t-33 -79
q0 -24 10 -46q12 -28 38 -47q30 -20 65 -20q50 0 83 37q21 23 27 52q3 12 3 24q0 46 -33 79t-80 33zM953 395q-24 0 -45 -18q-18 -15 -24 -40q-3 -13 -3 -14q0 -29 21 -50t51 -21t50.5 21t20.5 50.5t-21 50.5t-50 21z" />
    <glyph glyph-name="uniE60D" unicode="&#xe60d;" 
d="M698 418l-180 -312q-5 -10 -16 -10h-5q-13 0 -18 12l-150 307q-6 13 -18.5 20t-26.5 5q-21 -2 -33 -6.5t-17 -17t-6 -24t-1 -37.5v-297q0 -8 5.5 -13.5t14.5 -5.5h530q9 0 14.5 5.5t5.5 13.5v297q0 46 -9 63.5t-45 21.5q-30 3 -45 -22zM469 431q-23 -13 -32 -39t-6 -46
l3 -20l52 -159q4 -13 19 -13q14 0 18 13l53 159q0 4 1 9.5t1.5 21t-1.5 28.5t-9 27t-19 21q53 18 91 64.5t38 103.5q0 69 -55.5 121.5t-117.5 52.5t-117.5 -52.5t-55.5 -121.5q0 -60 41.5 -108t95.5 -62z" />
    <glyph glyph-name="uniE60E" unicode="&#xe60e;" 
d="M472 751q-92 0 -170 -39.5t-123.5 -107.5t-45.5 -148q0 -73 39 -137.5t108 -105.5v-95q0 -10 8 -14q4 -2 8 -2t8 3l44 28l2 2l49 33q37 -7 73 -7q92 0 170 39.5t123.5 107.5t45.5 148t-45.5 148t-123.5 107.5t-170 39.5zM826 380q34 -46 34 -100q0 -48 -26.5 -89.5
t-73.5 -67.5q-8 -5 -8 -14v-47l-5 4q-1 0 -2 1l-42 28q-5 4 -12 2q-56 -11 -106.5 0t-91.5 41l-19 -25q45 -33 101.5 -46t115.5 -2l35 -23q1 -1 2 -1l31 -21q4 -3 9 -3q4 0 7 2q9 4 9 14v67q50 31 78.5 78.5t28.5 101.5q0 65 -40 119z" />
    <glyph glyph-name="uniE60F" unicode="&#xe60f;" 
d="M756 287q-8 7 -9 7q-34 26 -27 70q12 86 -44 153t-133 75q-92 10 -160 -41.5t-79 -140.5q-9 -69 23 -128t93 -88t129 -16q22 4 37 -12q1 -1 28 -24q-22 -11 -27.5 -27.5t-3.5 -42.5q3 -49 -30 -62q-51 -21 -88 3q-13 8 -24 44q-1 5 -1.5 11.5t0.5 15t0 12.5q0 33 -29 45
t-52 -10q-28 -28 -29 -28q-14 -13 -31.5 -15.5t-32.5 7.5q-26 18 -44 44q-10 14 -7.5 32.5t15.5 31.5q5 6 14.5 15t13.5 13q21 22 12 48q-9 30 -39 34q-1 0 -46 2q-52 3 -54 54q-1 15 0 31q1 25 16 40t41 16h18h19q34 2 45 30q11 30 -12 53l-25 25q-7 7 -9 11q-27 44 33 93
q17 15 37.5 14t37.5 -17q5 -4 14 -13.5t14 -13.5q24 -22 53 -9q29 12 28 43q0 27 1 41q2 21 14 35t32 17q26 4 52 0q18 -3 30.5 -17t13.5 -34v-22v-22q3 -32 31.5 -43.5t51.5 11.5q4 4 10 10.5t9 8.5q9 10 12 12q44 34 97 -28q17 -19 16 -40t-19 -38q-22 -22 -27 -29
q-21 -26 -8 -53q14 -26 45 -26q33 0 37 -1q22 -1 37 -13.5t17 -33.5q4 -24 0 -48q-2 -21 -17 -33.5t-37 -13.5q-17 -1 -26 0q-36 3 -57 -25zM364 422q51 -53 54 -57q27 -26 58.5 -27t56.5 24q26 26 25.5 57.5t-27.5 58.5q-6 5 -18 17t-21.5 21t-17.5 18q70 21 129 -20
q45 -32 61 -82t-3 -102q-5 -15 8 -28q85 -83 136 -134q19 -20 18.5 -41.5t-21.5 -38.5q-16 -14 -35 -13.5t-35 16.5q-73 71 -136 135q-14 14 -33 8q-91 -31 -160 36q-62 58 -46 148q4 2 7 4zM768 155q-24 -3 -26 -25q-1 -11 7 -19.5t19.5 -8.5t19.5 8t8 20q-2 23 -28 25z
M768 155z" />
    <glyph glyph-name="uniE610" unicode="&#xe610;" 
d="M235 87q-21 0 -35.5 15.5t-14.5 37.5v227q0 5 -4 9t-9.5 4t-9.5 -4t-4 -9v-227q0 -33 22.5 -56.5t54.5 -23.5q6 0 9.5 4t3.5 9.5t-3.5 9.5t-9.5 4zM300 87h-13q-6 0 -10 -4t-4 -9.5t4 -9.5t10 -4h13q6 0 9.5 4t3.5 9.5t-3.5 9.5t-9.5 4zM866 407h-54v122q0 30 -20.5 54.5
t-51.5 32.5q2 8 -1 15l-58 154q-3 10 -13.5 14.5t-20.5 1.5l-462 -173q-7 -2 -11 -8h-21q-38 0 -63 -26.5t-25 -64.5v-469q0 -39 25 -66t63 -27h561q39 0 68.5 27.5t29.5 65.5v107h54q38 0 65.5 27t27.5 65v55q0 38 -27.5 65.5t-65.5 27.5zM641 741l45 -121h-370zM759 60
q0 -16 -14 -28t-31 -12h-561q-16 0 -25.5 11.5t-9.5 28.5v469q0 16 9.5 27t25.5 11h561q17 0 31 -11.5t14 -26.5v-122h-81q-39 0 -66 -27.5t-27 -65.5v-55q0 -38 27 -65t66 -27h81v-107zM905 259q0 -16 -11.5 -27.5t-27.5 -11.5h-188q-17 0 -28.5 11.5t-11.5 27.5v55
q0 16 11.5 27.5t28.5 11.5h188q16 0 27.5 -11.5t11.5 -27.5v-55zM705.5 313q-10.5 0 -18 -7.5t-7.5 -18t7.5 -18t18 -7.5t18 7.5t7.5 18t-7.5 18t-18 7.5z" />
    <glyph glyph-name="uniE611" unicode="&#xe611;" 
d="M621 241q-33 0 -62 -14l-109 108q12 27 12 57t-12 58l108 107q30 -14 63 -14q59 0 100.5 41t41.5 99.5t-41.5 99.5t-100.5 41t-100.5 -41t-41.5 -100q0 -27 11 -53l-111 -110q-28 13 -58 13q-59 0 -100.5 -41.5t-41.5 -99.5t41.5 -99t100.5 -41q30 0 58 12l111 -110
q-11 -26 -11 -54q0 -58 41.5 -99t100.5 -41t100.5 41t41.5 99t-41.5 99.5t-100.5 41.5z" />
    <glyph glyph-name="uniE612" unicode="&#xe612;" 
d="M927 273q-16 -58 -47 -111q-5 -8 -13.5 -10t-16 2.5t-10 13.5t2.5 16q29 48 43 100q20 75 10 150.5t-49 143t-99.5 114t-135.5 66.5q-101 27 -200.5 0t-173 -99.5t-100.5 -174t0 -201t100 -172.5t174 -101q77 -20 154.5 -9t146.5 53q7 4 16 2t13.5 -9.5t2.5 -16
t-10 -13.5q-104 -63 -223 -63q-56 0 -111 15q-113 30 -193.5 111.5t-110.5 192t0 223t111 193t192 110.5t223 0q83 -22 150.5 -73.5t110.5 -126.5t54 -159t-11 -167zM527 233q8 2 16 -2t11 -12t-1 -16t-13 -11l-64 -22q-3 -1 -7 -1q-8 0 -15 6q-9 9 -6 21l56 223l-51 -13
q-9 -2 -16.5 2.5t-10 13t2.5 16.5t13 10l86 21q12 3 20.5 -5.5t5.5 -20.5l-55 -220zM579 572l-6 -21q-4 -17 -21 -17q-2 0 -5 1q-9 2 -13.5 9.5t-2.5 16.5l6 22q2 8 9.5 13t16.5 2.5t13.5 -10t2.5 -16.5z" />
    <glyph glyph-name="uniE613" unicode="&#xe613;" 
d="M978 40h-870q-13 0 -22 8.5t-9 20.5v688q0 12 -9 20t-22 8t-22 -8t-9 -20v-717q0 -24 18 -40.5t44 -16.5h901q13 0 22 8t9 20t-9 20.5t-22 8.5zM978 40zM170 269h62q18 0 27 14l66 97l94 -195q7 -13 21 -16q12 -3 23 2.5t15 16.5l127 385l93 -281q2 -10 11 -16.5t20 -6.5
h155q4 0 8 1q17 -29 54 -29q26 0 44 16.5t18 40.5t-18 40.5t-44 16.5q-37 0 -54 -29q-4 1 -8 1h-132l-117 352q-4 11 -15 17t-24 2q-8 -2 -14 -8q-4 -5 -6 -11l-133 -401l-84 174q-2 5 -7 9v1h-1q-15 14 -34 6q-10 -4 -15 -13l-86 -128h-46q-13 0 -22 -8.5t-9 -20.5t9 -20.5
t22 -8.5zM170 269z" />
    <glyph glyph-name="uniE614" unicode="&#xe614;" 
d="M644 632h33v116h-33h-49q0 34 -24.5 58.5t-58.5 24.5t-58.5 -24.5t-24.5 -58.5h-49h-33v-116h33h264zM380 715h82v33q0 21 14.5 35.5t35.5 14.5t35.5 -14.5t14.5 -35.5v-33h82v-50h-264v50zM214 4h596v-17h-596v17zM711 715v-33h115v-712h-628v712h115v33h-148v-33v-712
v-33h694v33v712v33h-148zM512 483q53 0 93.5 -32.5t51.5 -83.5h-46v-33h83l45 83l-28 17l-26 -44q-18 56 -65.5 91t-107.5 35q-75 0 -128.5 -53t-53.5 -129h33q0 62 43.5 105.5t105.5 43.5zM309 199l29 50q17 -57 65 -93.5t109 -36.5q75 0 128.5 53.5t53.5 128.5h-33
q0 -61 -43.5 -105t-105.5 -44q-53 0 -93.5 33t-51.5 83h46v33h-83l-50 -86z" />
    <glyph glyph-name="uniE615" unicode="&#xe615;" 
d="M956 58q-2 98 -56 178t-141 119q41 32 64 78t23 99q0 93 -65.5 158t-158.5 65q-60 0 -111 -29q-52 29 -112 29q-92 0 -157.5 -65t-65.5 -158q0 -53 23 -99t63 -77q-86 -39 -140 -118t-57 -176l-1 -12q0 -16 11 -26.5t26 -10.5t26 10.5t11 26.5l1 1q0 101 69 175.5
t169 83.5q11 -2 22.5 -2t22.5 2q98 -9 166.5 -81t71.5 -171v-8q0 -16 11 -26.5t26 -10.5t26 10.5t11 26.5q0 7 -1 9q-1 74 -33.5 139t-87.5 111h16q12 0 16 1q21 2 40 7q36 -15 68.5 -37.5t62.5 -54t48.5 -76t18.5 -94.5v-4l1 -1q0 -16 10.5 -26.5t26 -10.5t26.5 10.5
t11 26.5q-1 7 -1 8zM398.5 379q-63.5 0 -108 44.5t-44.5 108t44.5 108.5t108 45t108.5 -45t45 -108.5t-45 -108t-108.5 -44.5zM684 398q3 1 7 3q-4 -2 -7 -3zM691 401q-3 -1 -7 -3q-22 -11 -46 -13l-15 -1h-1h-1q-24 0 -47 8q49 61 49 140t-50 141q23 8 48 8
q62 0 105.5 -43.5t43.5 -105.5q0 -42 -21.5 -77t-57.5 -54z" />
    <glyph glyph-name="uniE616" unicode="&#xe616;" 
d="M512 895q-104 0 -198.5 -40.5t-163 -109t-109 -163t-40.5 -198.5t40.5 -198.5t109 -163t163 -109t198.5 -40.5t198.5 40.5t163 109t109 163t40.5 198.5t-40.5 198.5t-109 163t-163 109t-198.5 40.5zM486 843v-400l-293 272q62 60 140 93q73 31 153 35zM52 384
q0 94 36 179q27 63 70 115l315 -293l-335 -268q-30 41 -50 88q-36 85 -36 179zM837.5 58.5q-63.5 -63.5 -146.5 -98.5q-85 -36 -179 -36t-179 36q-83 35 -146 99q-9 8 -17 18l368 294v472q80 -4 153 -35q83 -35 146.5 -98.5t98.5 -146.5q36 -85 36 -179t-36 -179
q-35 -83 -98.5 -146.5z" />
    <glyph glyph-name="uniE617" unicode="&#xe617;" 
d="M637 750q14 -21 24 -47q28 -75 12 -165l-6 -31l30 -10q5 -2 10 -12q6 -14 3 -33q-2 -18 -10.5 -28.5t-15.5 -10.5h-1l-32 6l-10 -32q-21 -67 -68 -99l-18 -13l3 -22l6 -45l2 -20l18 -9l193 -93l56 -53q3 -5 5 -10h-650q1 3 3 7l57 59l189 90l17 9l3 19l8 45l3 23l-19 13
q-46 33 -67 99l-10 31l-31 -5h-1q-7 0 -15.5 10.5t-10.5 28.5q-3 17 2 29.5t11 15.5l29 10l-5 31q-7 35 -4 68q8 85 82 115q26 10 61 10q13 0 39 -2q23 -2 36 -2q45 0 72 23zM637 806l-15 -18q-18 -24 -57 -24q-11 0 -33 2q-28 2 -42 2q-42 0 -74 -13q-95 -38 -106 -146
q-3 -37 4 -78q-20 -7 -30.5 -31t-6.5 -54q5 -30 23 -50t40 -20h6h1q24 -78 81 -118l-7 -45l-195 -93l-64 -67h-1q-16 -31 -8.5 -49t29.5 -18h666q17 0 24.5 7t6 18.5t-5.5 22t-10 21.5v1l-64 61l-199 95l-6 45q58 40 83 119h1h6q22 0 40 20t23 50q4 30 -7 54.5t-31 31.5
q19 99 -14 184q-18 47 -42 73zM560 173zM613 123zM132 81h-60q-19 0 -33.5 8.5t-18.5 22.5q-7 23 16 42l-1 2l190 116l2 13q-34 28 -52 74q-19 3 -34 20q-16 18 -20 45q-3 22 3.5 42t20.5 31q-3 25 -1 48q5 42 27 73t60 46q21 8 46 10l2 -37q-19 -1 -34 -8q-58 -22 -64 -88
q-2 -24 3 -50l3 -16l-15 -5q-8 -3 -12.5 -14.5t-2.5 -25.5t10 -24.5t17 -10.5h1h1l15 3l5 -15q16 -50 51 -75l10 -7l-9 -52l-187 -115l-5 -2q-8 -6 -10 -10q5 -4 16 -4h60v-37zM440 726zM960 81h-73v36h73q6 0 8 3q0 9 -22 21h-1l-177 106l-7 52l10 6q35 25 50 74l5 16
l17 -3h1q8 0 16 9.5t10 24t-2.5 26t-11.5 14.5l-15 5l3 15q12 65 -9 120q-9 24 -23 42q-14 -15 -35.5 -18.5t-40.5 -0.5l2 37q25 -2 34 -0.5t14 8.5l23 31l27 -28q19 -21 33 -58q23 -58 13 -126q14 -11 21 -30.5t4 -42.5q-4 -26 -21 -45q-15 -16 -34 -19q-18 -46 -51 -74
l1 -12l162 -97q49 -27 40 -63q-3 -13 -15 -21t-29 -8z" />
    <glyph glyph-name="uniE618" unicode="&#xe618;" 
d="M944 40h-860q-11 0 -18.5 7.5t-7.5 18t7.5 18t18.5 7.5h860q11 0 18.5 -7.5t7.5 -18t-7.5 -18t-18.5 -7.5zM296 382v-181q0 -21 -15 -36t-36 -15t-36 15t-15 36v181q0 21 15 36t36 15t36 -15t15 -36zM785 474v-273q0 -21 -15 -36t-36 -15t-36 15t-15 36v273q0 21 15 36
t36 15t36 -15t15 -36zM610 679v-478q0 -21 -14.5 -36t-36 -15t-36 15t-14.5 36v478q0 21 14.5 36t36 15t36 -15t14.5 -36zM450 566v-365q0 -21 -15 -36t-36 -15t-36 15t-15 36v365q0 21 15 36t36 15t36 -15t15 -36z" />
    <glyph glyph-name="uniE619" unicode="&#xe619;" 
d="M870 566v-204h-209q-14 -50 -55 -81.5t-94 -31.5t-94 31.5t-55 81.5h-120v-137q58 -8 96.5 -52t38.5 -102q0 -65 -46 -111t-111 -46t-111 46t-46 111q0 46 25 83.5t65 57.5v239h214q16 44 55.5 72t88.5 28t88.5 -28t55.5 -72h125l-4 104q-54 10 -90 51.5t-36 96.5
q0 62 45 106.5t109 44.5t109.5 -44.5t45.5 -106.5q0 -45 -25 -81.5t-65 -55.5zM126 65q0 -38 27 -65t65.5 -27t66 27t27.5 65t-27.5 64.5t-66 26.5t-65.5 -26.5t-27 -64.5zM512.5 491q-38.5 0 -66 -27t-27.5 -65t27.5 -64.5t66 -26.5t65.5 26.5t27 64.5t-27 65t-65.5 27z
M805.5 794q-38.5 0 -66 -27t-27.5 -65t27.5 -64.5t66 -26.5t66 26.5t27.5 64.5t-27.5 65t-66 27z" />
    <glyph glyph-name="uniE61A" unicode="&#xe61a;" 
d="M858 124q-42 0 -70 -35l-71 62q53 69 53 157q0 106 -73.5 181.5t-178.5 78.5v78q33 3 55.5 28t22.5 58q0 35 -25.5 60.5t-60.5 25.5t-60.5 -25.5t-25.5 -60.5q0 -33 22.5 -58t55.5 -28v-78q-105 -4 -178.5 -79t-73.5 -181q0 -88 53 -157l-72 -60q-27 35 -69 35
q-36 0 -61 -25.5t-25 -60.5t25 -60.5t60.5 -25.5t61 25.5t25.5 60.5q0 20 -8 37l73 61q37 -41 87.5 -64.5t107.5 -23.5t107.5 23.5t86.5 64.5l74 -61q-8 -21 -8 -37q0 -35 25.5 -60.5t60.5 -25.5t60.5 25.5t25.5 60.5q5 34 -20 59t-62 25zM512 144q-58 0 -103 38.5t-55 95.5
h-47l66 79l39 -45l32 -37h-53q11 -41 44.5 -68.5t76.5 -27.5q52 0 88.5 37.5t36.5 90t-36.5 89.5t-88.5 37q-62 0 -98 -49q-15 2 -19 6q-6 8 -6 23q46 59 125 59q67 0 114.5 -48t47.5 -116q-2 -68 -49.5 -116t-114.5 -48z" />
    <glyph glyph-name="uniE61B" unicode="&#xe61b;" 
d="M271 585q34 75 62 123q25 41 55 71t55 43.5t47 21t34 7.5l12 1q-72 30 -133 19t-111.5 -45.5t-86 -75.5t-55 -71t-19.5 -31l-113 49l63 -360l312 195zM479 200q-81 -13 -136 -15q-140 -5 -216 74l-16 18q8 -52 35 -93t60.5 -64.5t77 -39.5t78 -22t71.5 -8.5t50 -2t20 1.5
l20 -122l268 249l-333 155zM814 447q23 -42 33 -83.5t8.5 -70t-6 -51t-10.5 -33.5l-6 -11q146 103 89 317q-21 78 -55 136l100 71l-341 132l6 -368l109 77q47 -67 73 -116z" />
    <glyph glyph-name="uniE61C" unicode="&#xe61c;" horiz-adv-x="1053" 
d="M944 84q-44 0 -75 -31l-77 65q63 86 63 194q0 130 -89.5 225t-219.5 102v43q37 7 61.5 36t24.5 67q0 43 -30.5 74t-74 31t-74 -31t-30.5 -74q0 -38 24.5 -67t61.5 -36v-43q-130 -7 -220 -102t-90 -225q0 -102 57 -185l-79 -67q-29 24 -66 24q-43 0 -74 -30.5t-31 -74
t31 -74t74 -30.5t73.5 30.5t30.5 73.5q0 29 -14 53l78 65q46 -53 110.5 -83.5t137.5 -30.5q70 0 132.5 28t108.5 78l80 -67q-9 -21 -9 -43q0 -43 30.5 -73.5t74 -30.5t74 30.5t30.5 74t-30.5 74t-73.5 30.5zM373 152l-35 -35l-29 141l141 -28l-35 -36q50 -49 120.5 -49
t120 49.5t49.5 120t-49.5 120t-120 49.5t-120.5 -50q-9 -8 -21 -8t-21 8.5t-9 21t9 21.5q67 67 162 67t162.5 -67t67.5 -162.5t-67.5 -162.5t-162.5 -67t-162 67z" />
    <glyph glyph-name="uniE61D" unicode="&#xe61d;" 
d="M853 2h-121q-16 0 -28 10t-12 25v69q0 15 12 25t28 10h81v208h-282v-208h40q17 0 28.5 -10t11.5 -25v-69q0 -15 -11.5 -25t-28.5 -10h-121q-16 0 -28 10t-12 25v69q0 15 12 25t28 10h41v208h-282v-208h80q17 0 28.5 -10t11.5 -25v-69q0 -15 -11.5 -25t-28.5 -10h-121
q-16 0 -28 10t-12 25v69q0 15 12 25t28 10v208v35h41h282v243h-41q-16 0 -28 10t-12 25v69q0 15 12 25t28 10h121q17 0 28.5 -10t11.5 -25v-69q0 -15 -11.5 -25t-28.5 -10h-40v-243h282h40v-35v-208q17 0 28.5 -10t11.5 -25v-69q0 -15 -11.5 -25t-28.5 -10z" />
    <glyph glyph-name="uniE61E" unicode="&#xe61e;" 
d="M297 -10q-9 5 -12 14t2 17.5t14 11t17 -1.5q45 -24 93 -36t98 -12q82 0 155.5 31t129 86.5t86.5 128.5t31 155t-31 155t-86.5 128.5t-129 86.5t-155 31t-155 -31t-129 -86.5t-86.5 -128.5t-31 -155q0 -72 24 -138q25 -67 71 -122q6 -7 5.5 -16.5t-8 -16t-17 -5.5t-15.5 8
q-52 61 -79.5 135.5t-27.5 154.5q0 91 34.5 173t96.5 143.5t144 96.5t173.5 35t173 -35t143.5 -96.5t97 -143.5t35 -173t-35 -173t-97 -143.5t-143.5 -96.5t-173.5 -35q-56 0 -110 14t-102 40v0zM533 392v-65h115q9 0 16 -7t7 -16.5t-7 -16.5t-16 -7h-115v-73q0 -9 -7 -16
t-16.5 -7t-16.5 7t-7 16v73h-115q-10 0 -16.5 7t-6.5 16.5t6.5 16.5t16.5 7h115v65h-115q-10 0 -16.5 6.5t-6.5 16t6.5 16.5t16.5 7h107l-122 105q-7 6 -8 15.5t5.5 17t16 8t16.5 -5.5l123 -106l124 106q7 6 16.5 5.5t16 -8t5.5 -17t-8 -15.5l-122 -105h107q9 0 16 -7
t7 -16.5t-7 -16t-16 -6.5h-115zM533 392z" />
    <glyph glyph-name="uniE61F" unicode="&#xe61f;" 
d="M228 -17h-162v240h162v-240zM471 -17h-162v562h162v-562zM715 -17h-162v321h162v-321zM958 -17h-162v802h162v-802z" />
    <glyph glyph-name="uniE620" unicode="&#xe620;" 
d="M489 212q-8 2 -12.5 16.5t-5 23.5t-0.5 14q6 6 15 17t26.5 44t22.5 65q15 0 25 20t9 45.5t-15 38.5q0 1 1.5 17.5t2 29.5t-1 35.5t-6.5 40t-16.5 37.5t-28 33t-43.5 21.5t-62 8.5t-62.5 -8.5t-44 -21.5t-28 -33t-16 -37.5t-6.5 -40t-1 -35.5t2.5 -29.5t1.5 -17.5
q-15 -13 -16 -38.5t9.5 -45.5t25.5 -20q5 -32 21 -63.5t29 -46.5l14 -16q-1 -51 -19 -54q-24 -4 -67 -23t-90 -47t-81 -67.5t-34 -76.5h362h361q0 37 -34 76.5t-81 67.5t-90 47t-67 23zM729 225q-7 1 -11.5 15t-5 22.5t-0.5 13.5q6 5 14.5 15.5t24.5 41.5t21 61q14 0 24 19
t9 43t-15 36q0 1 1.5 16.5t2 28t-1 33.5t-6 37.5t-15.5 35.5t-26.5 31t-41 20.5t-58.5 8.5q-27 0 -49 -5q19 -13 32 -32.5t18.5 -37.5t7.5 -41.5t1.5 -37t-2.5 -31t-2 -18.5q15 -13 16 -38t-9.5 -45.5t-25.5 -20.5q-9 -62 -56 -118l-3 -8l-1 -31q5 -21 15 -22
q22 -4 61.5 -21t83.5 -42t80 -61t44 -71h130q0 36 -32.5 73t-76.5 63.5t-84.5 44.5t-63.5 22z" />
    <glyph glyph-name="uniE621" unicode="&#xe621;" 
d="M1007 508.5q0 30.5 -22 52.5t-53 22q-30 0 -52 -22t-22 -53q0 -9 3 -19q-13 -4 -22 -10l-135 -80l-118 171q-9 16 -27 30q24 24 24 57q0 34 -24.5 58t-58 24t-57.5 -24t-24 -58q0 -33 23 -57q-18 -14 -27 -30l-117 -171l-135 79l-1 2h-2q6 14 6 28q0 31 -22 52.5
t-52.5 21.5t-52.5 -21.5t-22 -52.5q0 -24 14.5 -43.5t37.5 -26.5v-16v-168q0 -11 8 -19.5t19.5 -8.5t19.5 8.5t8 19.5v168q0 10 1 14q4 -1 8 -4l1 -1l158 -93q10 -5 20.5 -3t16.5 12l133 193v2h1q0 1 4.5 6.5t13.5 11.5t20 7h1q7 -1 13 -3.5t10.5 -6t7.5 -7t5 -5.5l1 -3
l2 -2l133 -193q6 -9 16.5 -11.5t19.5 2.5l158 93l1 1q4 3 8 4q1 -4 1 -14v-230h-782q-11 0 -19 -8t-8 -19v-111q0 -11 8 -19t19 -8h810q11 0 19 8t8 19.5t-8 19.5t-19 8h-782v55h782q11 0 19 8t8 20v257v12q30 0 52 22t22 52.5zM92 528q8 0 13.5 -6t5.5 -13.5t-5.5 -13.5
t-13.5 -6t-13.5 6t-5.5 13.5t5.5 13.5t13.5 6zM501 684q11 0 19 -8t8 -19t-8 -19t-19 -8t-19 8t-8 19t8 19t19 8zM932 489q-8 0 -13.5 5.5t-5.5 13.5t5.5 13.5t13.5 5.5t13.5 -5.5t5.5 -13.5t-5.5 -13.5t-13.5 -5.5z" />
    <glyph glyph-name="uniE622" unicode="&#xe622;" 
d="M269 367q10 0 17 7t7 17v320q0 10 -7 17.5t-17 7.5t-17.5 -7.5t-7.5 -17.5v-320q0 -10 7.5 -17t17.5 -7zM269 338q-41 0 -70 -29t-29 -70q0 -34 21 -61t53 -35v-84q0 -11 7.5 -18t17.5 -7t17 7t7 18v84q33 8 54 35t21 61q0 41 -29 70t-70 29zM270 189h-1h-2q-20 0 -34 15
t-14 35q0 21 14.5 35.5t35.5 14.5t35.5 -14.5t14.5 -35.5q0 -20 -14 -35t-35 -15zM754 448q10 0 17.5 7.5t7.5 17.5v238q0 10 -7.5 17.5t-17.5 7.5t-17 -7.5t-7 -17.5v-238q0 -10 7 -17.5t17 -7.5zM754 420q-41 0 -70 -29t-29 -70q0 -34 21 -61t54 -35v-166q0 -11 7 -18
t17 -7t17.5 7t7.5 18v166q32 8 53 35t21 61q0 41 -29 70t-70 29zM756 271h-2h-1q-21 0 -35 15t-14 35q0 21 14.5 35.5t35.5 14.5t35.5 -14.5t14.5 -35.5q0 -20 -14 -35t-34 -15zM511.5 401q-10.5 0 -17.5 -7.5t-7 -17.5v-320q0 -10 7 -17t17.5 -7t17.5 7t7 17v320
q0 10 -7 17.5t-17.5 7.5zM536 625v84q0 10 -7 17t-17.5 7t-17.5 -7t-7 -17v-84q-32 -9 -53.5 -35.5t-21.5 -61.5q0 -41 29.5 -70t70.5 -29t70 29t29 70q0 35 -21 61.5t-54 35.5zM511.5 478q-20.5 0 -35.5 15t-15 35q0 21 14.5 35.5t34.5 14.5h2h1q20 0 34.5 -14.5
t14.5 -35.5q0 -20 -15 -35t-35.5 -15z" />
    <glyph glyph-name="uniE623" unicode="&#xe623;" horiz-adv-x="1103" 
d="M945 -128h-630q-65 0 -111 46t-46 112v551q0 65 46 111t111 46h630q65 0 111.5 -46t46.5 -111v-551q0 -66 -46.5 -112t-111.5 -46zM1024 581q0 33 -23 56t-56 23h-630q-33 0 -56 -23t-23 -56v-551q0 -33 23 -56t56 -23h630q33 0 56 23t23 56v551zM315 148h630v-79h-630
v79zM315 345h473v-79h-473v79zM315 542h236v-79h-236v79zM788 817h-630q-33 0 -56 -23t-23 -56v-551q0 -45 39 -68v-84q-51 13 -84.5 55.5t-33.5 96.5v551q0 66 46 112t112 46h630q54 0 96 -33.5t56 -84.5h-84q-23 39 -68 39z" />
    <glyph glyph-name="uniE624" unicode="&#xe624;" 
d="M839 649q0 -12 8.5 -21t21 -9t21.5 9t9 21v153q0 12 -9 21t-21 9h-153q-12 0 -21 -9t-9 -21.5t9 -21t21 -8.5h83l-263 -263l-82 81q-9 9 -21 9q-13 0 -21 -9l-279 -280q-9 -9 -9 -21.5t9 -21.5t21.5 -9t20.5 9l258 259l81 -81q9 -8 21.5 -8t21.5 8l282 282v-78zM774 514
h126v-578h-126v578zM564 395h126v-459h-126v459zM353 279h126v-343h-126v343zM143 152h126v-216h-126v216z" />
    <glyph glyph-name="uniE625" unicode="&#xe625;" 
d="M438 566q-9 10 -22 10t-23 -9.5t-10 -22.5t10 -23l67 -67h-44q-13 0 -22.5 -9t-9.5 -22.5t9.5 -23t22.5 -9.5h64v-24h-64q-13 0 -22.5 -9t-9.5 -22.5t9.5 -23t22.5 -9.5h64v-78q0 -13 9.5 -22.5t22.5 -9.5t22.5 9.5t9.5 22.5v79h64q13 0 22.5 9t9.5 22.5t-9.5 23
t-22.5 9.5h-64v24h64q13 0 22.5 9.5t9.5 22.5t-9.5 22.5t-22.5 9.5h-44l66 67q10 9 10 22t-9.5 23t-22.5 10t-23 -10l-73 -74zM813 696l-301 72l-294 -72l-26 -5v-334q0 -40 17 -80q15 -38 43 -77q38 -53 56 -71q36 -35 70 -60q37 -26 69 -43q30 -17 58 -24l7 -2l8 2
q26 7 56 24q29 15 67 43q34 26 67 60q48 48 63 71q26 38 42 77t16 80v334zM768 357q0 -27 -12 -56q-14 -35 -35 -65q-9 -14 -51 -57l-5 -5q-29 -30 -61 -54q-29 -22 -57 -37q-23 -12 -34 -16q-20 8 -36 16q-27 15 -60 39q-29 21 -62 53q-12 12 -43 53q-2 3 -7 9
q-22 32 -36 65q-13 26 -13 55v282l256 63l256 -61v-284z" />
    <glyph glyph-name="uniE626" unicode="&#xe626;" 
d="M855 134q-31 0 -56 -18l-109 91q30 51 30 110q0 87 -59.5 149.5t-145.5 65.5v111q35 4 59.5 30.5t24.5 62.5q0 39 -27.5 66.5t-66.5 27.5t-66 -27.5t-27 -66.5q0 -36 24 -62.5t60 -30.5l-1 -111q-85 -4 -145 -66t-60 -149q0 -76 48 -136l-105 -75q-29 28 -68 28
q-41 0 -69.5 -28.5t-28.5 -69t28.5 -69t69 -28.5t69 28.5t28.5 68.5q0 30 -17 56l106 75q64 -65 154 -65q54 0 100 24.5t76 66.5l105 -88q-28 -28 -28 -69q0 -40 28.5 -68.5t69 -28.5t69 28.5t28.5 69t-28.5 69t-69.5 28.5zM505.5 182q-50.5 0 -86.5 36t-36 86.5t36 86.5
t86 36q7 0 14 -1v20q0 4 3.5 5.5t6.5 -1.5l44 -43q4 -4 0 -9l-44 -43q-3 -3 -6.5 -1.5t-3.5 5.5v22q-7 1 -14 1q-32 0 -54.5 -22.5t-22.5 -54.5t22.5 -55t54.5 -23t55 23t23 55q0 6 6 6h32q6 0 6 -6q0 -51 -35.5 -87t-86 -36z" />
    <glyph glyph-name="uniE627" unicode="&#xe627;" 
d="M489 365q56 27 90 80.5t34 117.5q0 92 -64.5 156.5t-156 64.5t-156 -64.5t-64.5 -156.5q0 -64 34 -117.5t90 -80.5q-97 -29 -161 -108.5t-72 -182.5q-1 -3 -1 -7q0 -7 5 -12.5t13 -5.5t13 5.5t5 12.5h1q7 116 91.5 196t201.5 80t201.5 -80t91.5 -196h1q0 -7 5.5 -12.5
t13 -5.5t13 5.5t5.5 12.5q0 4 -2 7q-7 103 -71.5 182.5t-160.5 108.5v0zM209 563q0 76 53.5 130t129.5 54t130 -54t54 -130t-54 -130t-130 -54t-129.5 54t-53.5 130v0zM887 74q-8 103 -72.5 182.5t-160.5 108.5q56 27 90 80.5t34 117.5q0 91 -64.5 156t-155.5 65
q-14 0 -30 -3q25 -15 45 -35q71 -6 119.5 -58.5t48.5 -124.5q0 -71 -48 -123.5t-119 -59.5q2 -4 2 -10v-2l-1 -1q26 -15 47 -32q95 -21 158.5 -95t69.5 -173h1q0 -7 5.5 -12.5t13 -5.5t13 5.5t5.5 12.5q0 4 -1 7v0zM887 74z" />
    <glyph glyph-name="uniE628" unicode="&#xe628;" 
d="M777 734q10 0 21 -2t21 -5t20 -8l18 -12q17 -13 26 -31q10 -16 11.5 -34.5t-5.5 -35.5q-8 -18 -23 -32q-8 -7 -17 -12q-9 -6 -20 -9q-10 -4 -20.5 -5.5t-21.5 -1.5h-11q-5 0 -10 1t-10.5 2t-10.5 3l-92 -81q10 -16 15 -33t5.5 -34.5t-4.5 -34.5t-15 -33l99 -86l12 4
q6 2 12 3t12 1.5t13 0.5q11 0 22.5 -2t23.5 -6q11 -4 21 -10q11 -6 20 -14q19 -15 30 -36q10 -20 12 -42q1 -23 -6 -43q-8 -22 -25 -38q-8 -9 -19 -15q-10 -7 -21 -11t-23 -6t-24 -2t-24 2t-23.5 6t-22.5 11q-11 6 -20 15q-15 13 -25 31q-9 16 -13 34q-3 18 0 35.5t12 33.5
l-95 84q-10 -6 -21 -10.5t-22.5 -7.5t-23 -4.5t-23.5 -1.5q-10 0 -20 1t-19.5 3t-19 5t-18.5 8l-102 -90q6 -15 7 -31t-3 -32t-13 -31t-23 -27q-9 -9 -20 -15q-11 -7 -22.5 -11t-23.5 -6t-24 -2t-24 2t-23 6t-21 11q-11 6 -19 15q-17 16 -25 38q-7 21 -5.5 43t11.5 42
q11 21 30 36q9 8 20 14q10 6 21.5 10t23 6t23.5 2q8 0 16 -1t16 -3t15.5 -5t14.5 -6l93 80q-14 18 -21 39q-7 20 -6.5 41t7.5 41t21 37l-86 75q-7 -3 -13 -5q-7 -2 -14 -3.5t-14 -2t-14 -0.5q-12 0 -22.5 1.5t-20.5 5t-19.5 9t-17.5 12.5q-15 14 -23 32q-7 17 -5.5 35.5
t11.5 34.5q9 18 26 31q9 6 19 12q9 5 19 8t21 5t21.5 2t21 -2t20.5 -5t19 -8t17 -12q12 -10 19 -23q7 -12 9.5 -26t0.5 -28t-10 -27l90 -77q9 4 19 8q9 3 19 5t20 3t20 1q12 0 24 -1.5t23 -4.5q12 -3 22.5 -7.5t21.5 -10.5l84 73q-11 14 -15 29q-4 16 -2.5 31t8.5 29
q8 15 21 26q8 7 17 12t19 8t20.5 5t21.5 2v0v0zM777 734z" />
    <glyph glyph-name="uniE629" unicode="&#xe629;" horiz-adv-x="1025" 
d="M1024 470q0 1 -1 4t-1 4q-2 1 -2 2v2q-2 3 -4 4h-2l-490 342q-12 9 -24 0l-490 -340v-2h-2l-4 -4v-2l-2 -2q0 -1 -1 -4t-1 -4v-470q0 -36 25 -61t61 -25h852q36 0 61 25t25 61v470v0zM938 -42h-852q-18 0 -31 12t-13 30v430l224 -150q4 -2 12 -2q10 0 18 8q5 7 3 16.5
t-9 13.5l-230 154l452 314l452 -314l-230 -154q-6 -5 -8 -13.5t2 -16.5q8 -8 18 -8q8 0 12 2l224 150v-430q0 -18 -13 -30t-31 -12zM674 252q-8 4 -12 4h-300q-4 0 -12 -4l-212 -150q-7 -4 -9 -13t3 -15q4 -7 13.5 -9t16.5 3l208 146h284l208 -146q8 -4 12 -4q11 0 18 10
q5 6 3 15t-9 13z" />
    <glyph glyph-name="uniE62A" unicode="&#xe62a;" 
d="M459 218q-7 0 -14 3q-47 20 -75.5 63t-28.5 95q0 71 50 121t121 50t121 -50t50 -121q0 -51 -27 -94t-72 -64q-13 -6 -26.5 -1t-19 17.5t-1 26t17.5 19.5q28 12 44 38t16 58q0 42 -30 72.5t-73 30.5t-73 -30.5t-30 -72.5q0 -32 17 -58t46 -38q13 -6 18 -19t0 -26
q-9 -20 -31 -20zM558 -128h-92q-35 0 -59.5 24.5t-24.5 59.5v96q-15 4 -29 9l-51 -52q-24 -24 -60 -24t-60 24l-64 65q-25 25 -25 60t25 59l25 25q10 10 24 10t24 -10t10 -24t-10 -24l-25 -25q-12 -11 0 -23l64 -65q5 -5 12 -5t12 5l67 68q17 17 39 7q19 -10 65 -22
q11 -3 18 -12t7 -20v-122q0 -6 5 -11t11 -5h92q6 0 11 5t5 11v122q0 12 8 21.5t20 11.5q32 6 62 21q22 10 39 -7l67 -68q5 -5 12 -5t12 5l64 65q12 12 0 23l-67 68q-17 17 -7 39q15 30 21 62q2 12 11.5 19.5t21.5 7.5h102q6 0 11 5t5 12v91q0 7 -5 12t-11 5h-102
q-12 0 -21.5 7.5t-11.5 19.5q-6 32 -21 63q-10 21 7 38l67 68q12 12 0 23l-64 65q-5 5 -12 5t-12 -5l-67 -68q-17 -17 -39 -6q-30 14 -62 20q-12 3 -20 12t-8 22v82q0 6 -5 11t-11 5h-92q-6 0 -11 -5t-5 -11v-82q0 -12 -7.5 -21.5t-19.5 -11.5q-37 -9 -63 -21q-22 -11 -39 6
l-67 68q-5 5 -12 5t-12 -5l-64 -65q-12 -11 0 -23l67 -68q17 -16 7 -38q-15 -34 -21 -63q-2 -12 -11.5 -19.5t-21.5 -7.5h-102q-6 0 -11 -5t-5 -12v-91q0 -7 5 -12t11 -5h31q14 0 24 -9.5t10 -24t-10 -24t-24 -9.5h-31q-35 0 -59.5 24.5t-24.5 59.5v91q0 35 24.5 60t59.5 25
h76q4 13 9 28l-51 52q-25 25 -25 60t25 59l64 65q24 24 60 24t60 -24l51 -52q13 5 29 10v56q0 34 24.5 59t59.5 25h92q35 0 59.5 -25t24.5 -59v-56q15 -4 29 -9l51 51q24 24 60 24t60 -24l64 -65q25 -24 25 -59t-25 -60l-51 -51q5 -14 10 -29h75q34 0 59 -25t25 -60v-91
q0 -35 -25 -59.5t-59 -24.5h-75q-5 -15 -10 -29l51 -52q25 -24 25 -59t-25 -60l-64 -65q-24 -24 -60 -24t-60 24l-51 52q-14 -6 -29 -10v-95q0 -35 -24.5 -59.5t-59.5 -24.5z" />
    <glyph glyph-name="uniE62B" unicode="&#xe62b;" 
d="M933 -12l-48 20q-11 4 -21 -3q-15 -12 -33 -20q-11 -4 -13 -16l-7 -52h-74l-7 52q-2 12 -13 16q-18 8 -34 20q-9 7 -20 3l-49 -20l-37 64l41 33q10 7 8 19q-1 11 -1 19t1 20q2 11 -8 19l-41 32l37 64l49 -20q11 -4 20 3q16 12 34 20q11 4 13 16l7 52h74l7 -52
q2 -12 13 -16q18 -8 34 -20q9 -7 20 -3l49 20l37 -64l-42 -32q-9 -8 -8 -19q2 -12 2 -20t-2 -19q-1 -12 8 -19l41 -33zM1003 80l-39 30q1 7 1 13t-1 13l39 30q10 8 12 19.5t-4 22.5l-45 78q-10 16 -28 16q-6 0 -12 -2l-46 -18q-11 7 -22 12l-7 49v1q-2 12 -11 19.5t-21 7.5
h-90q-12 0 -21 -8t-11 -20l-7 -49q-12 -5 -22 -12l-46 18q-6 2 -12 2q-18 0 -28 -16l-45 -78q-6 -11 -4 -22.5t12 -19.5l38 -30v-13v-13l-38 -30q-10 -7 -12 -19t4 -22l45 -79q10 -16 28 -16q6 0 12 2l46 19q10 -8 22 -13l7 -49q2 -12 11 -19.5t21 -7.5h90q12 0 21 7.5
t11 19.5l7 49q12 5 22 13l46 -19q6 -2 12 -2q18 0 28 16l45 78q6 11 3.5 22.5t-11.5 19.5zM774 80q-18 0 -30.5 12.5t-12.5 30.5t12.5 30.5t30.5 12.5t30.5 -12.5t12.5 -30.5t-12.5 -30.5t-30.5 -12.5zM774 208q-35 0 -60 -25t-25 -60t25 -60t60 -25t60 25t25 60t-25 60
t-60 25zM732 718h-596q-9 0 -15 -6t-6 -14.5t6 -15t15 -6.5h596q9 0 15 6.5t6 15t-6 14.5t-15 6zM753 547q0 9 -6 15t-15 6h-596q-9 0 -15 -6t-6 -15t6 -15t15 -6h596q9 0 15 6t6 15zM136 418q-9 0 -15 -6t-6 -15t6 -15t15 -6h404q9 0 15 6t6 15t-6 15t-15 6h-404zM471 -60
h-393q-12 0 -21 9t-9 21v854q0 12 9 21t21 9h712q13 0 22 -9t9 -21v-369q0 -8 6 -14t14.5 -6t15 6t6.5 14v369q0 30 -21.5 51t-51.5 21h-712q-30 0 -51 -21t-21 -51v-854q0 -30 21 -51t51 -21h393q9 0 15 6t6 14.5t-6 15t-15 6.5z" />
    <glyph glyph-name="uniE62C" unicode="&#xe62c;" 
d="M571 36q121 10 205 52q38 19 57.5 39t19.5 35q0 17 -23.5 39.5t-68.5 42.5l34 78q68 -30 106 -71.5t38 -88.5q0 -58 -57.5 -107t-155.5 -77.5t-214 -28.5t-214 28.5t-155.5 77.5t-57.5 107q0 47 39 89t108 72l34 -78q-46 -20 -70.5 -42.5t-24.5 -40.5q0 -15 19.5 -35
t57.5 -39q86 -43 210 -52l-23 190h-50l-56 312h366l-52 -312h-50zM512 610q42 0 72 30t30 72.5t-30 72.5t-72 30t-72 -30t-30 -72.5t30 -72.5t72 -30z" />
    <glyph glyph-name="uniE62D" unicode="&#xe62d;" 
d="M910 560h-167l-136 224l-46 -22l123 -202h-345l123 202l-46 22l-136 -224h-167q-21 0 -35.5 -14.5t-14.5 -35.5v-100q0 -7 3 -16l-3 -1l200 -386q2 -8 8.5 -14t15.5 -6h448q11 0 18 7.5t7 17.5l191 370q9 13 9 28v100q0 21 -15 35.5t-35 14.5zM718 37h-414l-168 324h748z
M910 410h-797v100h797v-100zM382 103q-10 0 -17 7.5t-7 16.5v157q0 10 7 17t17 7t17.5 -7t7.5 -17v-157q0 -9 -7.5 -16.5t-17.5 -7.5zM512 103q-10 0 -17 7.5t-7 16.5v157q0 10 7 17t17 7t17 -7t7 -17v-157q0 -9 -7 -16.5t-17 -7.5zM642 103q-10 0 -17.5 7.5t-7.5 16.5v157
q0 10 7.5 17t17.5 7t17 -7t7 -17v-157q0 -9 -7.5 -16.5t-16.5 -7.5z" />
    <glyph glyph-name="uniE62E" unicode="&#xe62e;" 
d="M861 -43h-698q-22 0 -37.5 16t-15.5 38v746q0 22 15.5 38t37.5 16h698q22 0 37.5 -16t15.5 -38v-746q0 -22 -15.5 -38t-37.5 -16zM861 704h-698v-693h698v693zM807 277h-590v374h590v-374zM530 429l-105 105q-1 1 -1 2t-1 2q-7 7 -19 7t-19 -7q-1 -1 -1.5 -2t-0.5 -2
l-105 -105q-8 -7 -8 -17.5t7.5 -18t18 -7.5t18.5 7l90 89l90 -89q7 -7 18 -7t18.5 7.5t7.5 18t-8 17.5zM746 588v2l-1 1q-1 1 -3 1.5t-2 1.5l-6 2v0q-5 1 -7 1h-1h-1h-1h-1h-104q-11 0 -19 -7.5t-8 -18.5q0 -25 54 -27h15l-115 -115q-8 -7 -8 -17.5t7.5 -18t18.5 -7.5t18 7
l118 117v-46q0 -11 7.5 -19t19 -8t19 8t7.5 19v106v1q0 5 -2 10q-1 2 -4 6zM592 171h-375v53h375v-53zM753 64h-536v53h536v-53z" />
    <glyph glyph-name="uniE62F" unicode="&#xe62f;" 
d="M522 755q-1 0 -5 0.5t-6 0.5q-78 0 -147.5 -29t-123.5 -81l113 -199zM847 561q-39 68 -102 115.5t-140 67.5l-100 -183h342zM882 483h-237l190 -332q65 98 65 215q0 60 -18 117zM187 582q-66 -98 -66 -216q0 -59 18 -116h237zM499 -22q1 0 5 -0.5t7 -0.5q77 0 147 29
t123 81l-113 199zM174 172q39 -68 102 -116t140 -67l101 183h-343z" />
    <glyph glyph-name="uniE630" unicode="&#xe630;" 
d="M782 659h-78v2q-5 28 -27.5 46.5t-51.5 18.5h-16q0 40 -28.5 68.5t-68.5 28.5t-68.5 -28.5t-28.5 -68.5h-16q-29 0 -51.5 -18.5t-27.5 -46.5v-2h-79q-23 0 -39.5 -16.5t-16.5 -40.5v-589q0 -23 16.5 -40t39.5 -17h541q23 0 39.5 17t16.5 40v589q0 24 -16.5 40.5
t-39.5 16.5zM512 774q20 0 34 -14t14 -34t-14 -34.5t-34 -14.5t-34.5 14.5t-14.5 34.5t14.5 34t34.5 14zM794 13q0 -5 -3.5 -8.5t-8.5 -3.5h-541q-5 0 -8.5 3.5t-3.5 8.5v589q0 5 3.5 8.5t8.5 3.5h79v-50h386l-1 50h77q5 0 8.5 -3.5t3.5 -8.5v-589zM732 395h-246
q-9 0 -15.5 6.5t-6.5 15.5t6.5 15.5t15.5 6.5h246q9 0 15.5 -6.5t6.5 -15.5t-6.5 -15.5t-15.5 -6.5zM395 357h-75q-10 0 -16.5 6.5t-6.5 15.5v76q0 9 6.5 15.5t16.5 6.5h75q10 0 16.5 -6.5t6.5 -15.5v-76q0 -9 -6.5 -15.5t-16.5 -6.5zM342 401h31v31h-31v-31zM732 249h-246
q-9 0 -15.5 6.5t-6.5 15.5t6.5 15.5t15.5 6.5h246q9 0 15.5 -6.5t6.5 -15.5t-6.5 -15.5t-15.5 -6.5zM395 211h-75q-10 0 -16.5 6.5t-6.5 15.5v76q0 9 6.5 15.5t16.5 6.5h75q10 0 16.5 -6.5t6.5 -15.5v-76q0 -9 -6.5 -15.5t-16.5 -6.5zM342 256h31v31h-31v-31zM732 102h-246
q-9 0 -15.5 6.5t-6.5 16t6.5 16t15.5 6.5h246q9 0 15.5 -6.5t6.5 -16t-6.5 -16t-15.5 -6.5zM395 64h-75q-10 0 -16.5 6.5t-6.5 16.5v75q0 9 6.5 15.5t16.5 6.5h75q10 0 16.5 -6.5t6.5 -15.5v-75q0 -10 -6.5 -16.5t-16.5 -6.5zM342 109h31v31h-31v-31z" />
    <glyph glyph-name="uniE631" unicode="&#xe631;" 
d="M715 -6h-409q-53 0 -91 34t-38 81v487q0 47 38 81t91 34q12 0 21 -9t9 -21t-9 -21t-21 -9q-29 0 -49 -16t-20 -39v-487q0 -23 20 -39t49 -16h409q29 0 49 16t20 39v487q0 23 -20 39t-49 16q-12 0 -21 9t-9 21t9 21t21 9q53 0 91 -34t38 -81v-487q0 -47 -38 -81t-91 -34z
M703 574h-377q-12 0 -20.5 9t-8.5 21v107q0 43 30 73.5t73 30.5h229q43 0 73.5 -30.5t30.5 -73.5v-107q0 -12 -9 -21t-21 -9zM356 634h317v77q0 19 -13 31.5t-31 12.5h-229q-18 0 -31 -12.5t-13 -31.5v-77zM466.5 144q-12.5 0 -21.5 8l-140 140q-8 9 -8 21.5t8.5 21t21 8.5
t21.5 -9l118 -118l233 232q9 9 21 9t21 -8.5t9 -21t-9 -21.5l-254 -254q-8 -8 -20.5 -8z" />
    <glyph glyph-name="uniE632" unicode="&#xe632;" 
d="M604 634l-78 -173h-16l-78 173h-48l79 -173h-79v-47h110v-31v-47h-110v-47h110v-78h48v78h110v47h-110v78h47h63v47h-79l79 173h-48zM877 782q-5 3 -13 7t-35.5 12t-64.5 14.5t-104 11t-148.5 4.5t-148 -4.5t-103.5 -11t-65 -14.5t-36 -12t-12 -7q-18 -13 -18 -35v-364
q0 -46 20 -94.5t49 -88.5t69.5 -81t75 -69t71.5 -54.5t52.5 -36.5t24.5 -15t20.5 -5t20.5 5t25 15t53 36.5t71.5 54.5t74.5 69t69.5 81t49 88.5t19.5 94.5v364q0 22 -17 35zM860 383q0 -42 -19.5 -87t-48 -82.5t-68 -76.5t-72 -65.5t-69 -52t-48.5 -33.5t-21 -13h-2h-3
q-8 5 -20.5 13t-49 33.5t-68.5 52t-72 65.5t-68.5 76.5t-48 82.5t-19.5 87v364q0 5 4 7q1 2 8.5 5.5t33.5 10.5t61 12.5t99.5 10t142.5 4.5t142 -4.5t99 -10t61.5 -13t33 -10.5t8.5 -4q4 -3 4 -8v-364z" />
    <glyph glyph-name="uniE633" unicode="&#xe633;" 
d="M914 58q0 -31 -22.5 -53.5t-53.5 -22.5h-652q-31 0 -53.5 22.5t-22.5 53.5v313h-78v-313q0 -64 45 -109t109 -45h652q64 0 109 45t45 109v313h-78v-313zM838 864h-652q-64 0 -109 -45t-45 -109v-313h78v313q0 31 22.5 53.5t53.5 22.5h652q31 0 53.5 -22.5t22.5 -53.5
v-313h78v313q0 64 -45 109t-109 45zM618 700q61 -5 110.5 -22t77 -38t46.5 -41.5t25 -34.5l6 -14l-8 89q-27 38 -68 60.5t-88 27.5t-88.5 2t-84.5 -12q-24 4 -46 4q-92 0 -171 -46t-125 -124.5t-46 -171.5t46 -172t125 -125t171.5 -46t171.5 46t125 125t46 172
q0 109 -62.5 196.5t-162.5 124.5zM377.5 162q-38.5 0 -66 27.5t-27.5 66t27.5 66t66 27.5t66 -27.5t27.5 -66t-27.5 -66t-66 -27.5zM377.5 408q-38.5 0 -66 27.5t-27.5 66t27.5 66t66 27.5t66 -27.5t27.5 -66t-27.5 -66t-66 -27.5zM623.5 162q-38.5 0 -66 27.5t-27.5 66
t27.5 66t66 27.5t66 -27.5t27.5 -66t-27.5 -66t-66 -27.5zM623.5 408q-38.5 0 -66 27.5t-27.5 66t27.5 66t66 27.5t66 -27.5t27.5 -66t-27.5 -66t-66 -27.5z" />
    <glyph glyph-name="uniE634" unicode="&#xe634;" 
d="M569 296v-197q31 -6 59.5 -19t47.5 -27.5t33 -28t21 -22.5l6 -8q0 -24 -16.5 -40t-39.5 -16h-335q-23 0 -39.5 16t-16.5 40q3 3 7.5 8.5t20 21.5t33.5 29t47 26.5t60 19.5v192l-391 538h112v2h670v-2h108zM272 719l143 -167h192l143 167h-478z" />
    <glyph glyph-name="uniE635" unicode="&#xe635;" 
d="M804 743h137v-170h-137v170zM804 368h137v-137h-137v137zM88 368h136v-137h-136v137zM88 538h136v-136h-136v136zM804 538h137v-136h-137v136zM88 197h136v-171h-136v171zM804 197h137v-171h-137v171zM88 743h136v-170h-136v170zM258 26h511v717h-511v-717zM429 523
l239 -138l-239 -138v276z" />
    <glyph glyph-name="uniE636" unicode="&#xe636;" 
d="M957 -21h-231q109 60 174.5 168.5t65.5 237.5q0 94 -36.5 179.5t-98.5 147t-147.5 98t-179.5 36.5t-179.5 -36.5t-147.5 -98t-98.5 -147t-36.5 -179.5t36.5 -180t98.5 -147.5t147.5 -98t179.5 -36.5h7h2h444q11 0 19.5 8t8.5 20t-8.5 20t-19.5 8zM737 471q35 0 60 -24.5
t25 -60t-25 -60.5t-60 -25t-60 25t-25 60.5t25 60t60 24.5zM504 702q35 0 60 -25t25 -60t-25 -60t-60 -25t-60 25t-25 60t25 60t60 25zM270 297q-35 0 -60 25t-25 60t25 60t60 25t60 -25t25 -60t-25 -60t-60 -25zM419 151q0 35 25 60t60 25t60 -25t25 -60t-25 -60t-60 -25
t-60 25t-25 60z" />
    <glyph glyph-name="uniE637" unicode="&#xe637;" 
d="M583 383q0 -17 -12 -29.5t-29 -12.5t-29.5 12.5t-12.5 29.5t12.5 29t29.5 12t29 -12t12 -29zM542 482q41 0 70 29t29 70t-29 70t-70 29t-70 -29t-29 -70t29 -70t70 -29zM542 653q30 0 51 -21t21 -51t-21 -51t-51 -21t-51 21t-21 51t21 51t51 21zM542 284q-41 0 -70 -29
t-29 -70t29 -70t70 -29t70 29t29 70t-29 70t-70 29zM542 113q-30 0 -51 21t-21 50.5t21 51t51 21.5t51 -21.5t21 -51t-21 -50.5t-51 -21zM740 482q-41 0 -70 -29t-29 -70t29 -70t70 -29t70 29t29 70t-29 70t-70 29zM740 311q-30 0 -51 21t-21 50.5t21 51t51 21.5t51 -21.5
t21 -51t-21 -50.5t-51 -21zM344 482q-41 0 -70 -29t-29 -70t29 -70t70 -29t70 29t29 70t-29 70t-70 29zM344 311q-30 0 -51 21t-21 50.5t21 51t50.5 21.5t51 -21.5t21.5 -51t-21.5 -50.5t-50.5 -21zM542 788q-110 0 -203.5 -54.5t-147.5 -147.5t-54 -203q0 -69 22 -133
q10 -28 23 -54q3 -5 6 -11q8 -17 8 -36q0 -35 -24.5 -59.5t-59.5 -24.5q-11 0 -23 3q-4 -14 -12 -25q17 -5 35 -5q44 0 76.5 30.5t34.5 74.5v6q0 26 -11 49q-1 2 -4 7q-44 83 -44 178q0 102 50.5 189.5t137.5 138t189.5 50.5t190 -50.5t138 -138t50.5 -190t-50.5 -189.5
t-138 -138t-189.5 -51q-118 0 -215 67q-2 -15 -6 -28q100 -66 221 -66q110 0 203.5 54.5t147.5 148t54 203.5t-54 203t-147.5 147.5t-203.5 54.5zM542 788z" />
    <glyph glyph-name="uniE638" unicode="&#xe638;" 
d="M512 465q50 0 86 36t36 86.5t-36 86t-86 35.5t-86 -35.5t-36 -86t36 -86.5t86 -36zM512 668q34 0 57.5 -23.5t23.5 -57.5t-23.5 -57.5t-57.5 -23.5t-57.5 23.5t-23.5 57.5t23.5 57.5t57.5 23.5zM431 384q0 50 -36 86t-86.5 36t-86 -36t-35.5 -86t35.5 -86t86 -36t86.5 36
t36 86zM309 303q-34 0 -57.5 23.5t-23.5 57.5t23.5 57.5t57.5 23.5t57.5 -23.5t23.5 -57.5t-23.5 -57.5t-57.5 -23.5zM512 303q-50 0 -86 -36t-36 -86.5t36 -86t86 -35.5t86 35.5t36 86t-36 86.5t-86 36zM512 100q-34 0 -57.5 23.5t-23.5 57.5t23.5 57.5t57.5 23.5
t57.5 -23.5t23.5 -57.5t-23.5 -57.5t-57.5 -23.5zM837 384q0 50 -35.5 86t-86 36t-86.5 -36t-36 -86t36 -86t86.5 -36t86 36t35.5 86zM715 303q-34 0 -57.5 23.5t-23.5 57.5t23.5 57.5t57.5 23.5t57.5 -23.5t23.5 -57.5t-23.5 -57.5t-57.5 -23.5zM888 -22h-190
q117 54 189 163.5t72 242.5q0 91 -35.5 173.5t-95.5 142.5t-142.5 95.5t-173.5 35.5t-173.5 -35.5t-142.5 -95.5t-95.5 -142.5t-35.5 -173.5q0 -115 54.5 -214.5t149 -160.5t207.5 -70q3 -2 6 -2h406q10 0 10 10v21q0 10 -10 10zM106 384q0 110 54.5 203.5t148 148
t203.5 54.5t203.5 -54.5t148 -148t54.5 -203.5t-54.5 -203.5t-148 -148t-203.5 -54.5t-203.5 54.5t-148 148t-54.5 203.5z" />
    <glyph glyph-name="uniE639" unicode="&#xe639;" 
d="M843 588h-94v-59h94q10 0 17.5 -7.5t7.5 -17.5v-484q0 -10 -7.5 -17.5t-17.5 -7.5h-662q-10 0 -17.5 7.5t-7.5 17.5v484q0 10 7.5 17.5t17.5 7.5h94v59h-94q-35 0 -59.5 -25t-24.5 -59v-484q0 -35 24.5 -59.5t59.5 -24.5h662q35 0 59.5 24.5t24.5 59.5v484q0 34 -24.5 59
t-59.5 25zM344 313q26 0 44.5 18.5t18.5 43.5q0 38 -34 55v214q0 52 45.5 90.5t100.5 38.5q53 0 92.5 -38t39.5 -91v-212q-17 -7 -27 -22.5t-10 -34.5q0 -25 18.5 -43.5t44.5 -18.5t44 18.5t18 43.5q0 35 -29 53v216q0 77 -56.5 132.5t-134.5 55.5q-80 0 -142.5 -56
t-62.5 -132v-214q-32 -18 -32 -55q0 -25 18 -43.5t44 -18.5zM414 529h196v59h-196v-59z" />
    <glyph glyph-name="uniE63A" unicode="&#xe63a;" 
d="M749 -64h-474q-39 0 -70.5 26.5t-38.5 65.5l-68 415q-7 41 18.5 71t67.5 30h656q42 0 67.5 -30t18.5 -72l-68 -414q-7 -39 -38.5 -65.5t-70.5 -26.5zM184 480q-12 0 -18.5 -7.5t-4.5 -19.5l69 -415q2 -15 15.5 -26.5t29.5 -11.5h474q16 0 29.5 11.5t16.5 27.5l68 414
q2 12 -4.5 19.5t-18.5 7.5h-656zM318 289q-26 0 -45 18.5t-19 45t19 45t45.5 18.5t45 -18.5t18.5 -45t-18.5 -45t-45.5 -18.5zM318 353v-1v-31v32zM704 289q-27 0 -45.5 18.5t-18.5 45t18.5 45t45 18.5t45.5 -18.5t19 -45t-19 -45t-45 -18.5zM704 353v-32v32zM736 576
q-14 0 -23 9t-9 22q0 66 -61 113t-133 47q-74 0 -132 -44t-58 -115q0 -13 -9 -22.5t-22.5 -9.5t-23 9.5t-9.5 22.5q0 67 38 119t95.5 78t120.5 26q62 0 120.5 -27.5t98 -80t39.5 -116.5q0 -13 -9.5 -22t-22.5 -9zM736 576z" />
    <glyph glyph-name="uniE63B" unicode="&#xe63b;" 
d="M919 894h-813q-43 0 -73.5 -30.5t-30.5 -73.5v-813q0 -44 30.5 -74.5t73.5 -30.5h813q43 0 74 30.5t31 74.5v813q0 43 -31 73.5t-74 30.5zM827 604l-3 -1v-3q-17 -115 -106 -192.5t-205.5 -77.5t-205.5 77.5t-106 192.5v3l-2 1q-25 14 -25 41q0 21 14.5 35t34.5 14
t34.5 -14t14.5 -35q0 -22 -18 -37l-2 -2v-2q15 -97 89 -160t172 -63t171.5 63t88.5 160l1 2l-2 2q-18 15 -18 37q0 21 14 35t34 14v0q21 0 35 -14t14 -35q0 -27 -24 -41z" />
    <glyph glyph-name="uniE63C" unicode="&#xe63c;" 
d="M627.5 372.5q9.5 -9.5 23.5 -9.5t24 9l233 234q10 9 10 23t-10 24t-24 10t-23 -10l-234 -233q-9 -10 -9 -24t9.5 -23.5zM921 428h-139l-88 -88q-21 -21 -50 -21t-49 21q-18 17 -20.5 42t10.5 46h-146q13 -21 10.5 -46t-20.5 -42q-20 -21 -49.5 -21t-49.5 21l-88 88h-139
q-14 0 -24 -10t-10 -25v-102q0 -14 10 -24t24 -10h34v-34q0 -3 68 -273q7 -12 10.5 -17.5t10 -11t13.5 -5.5h546q13 0 20 8.5t14 25.5q68 270 68 273v34h34q14 0 24 10t10 24v102q0 15 -10 25t-24 10zM410 18q0 -14 -10 -24t-24 -10t-24 10t-10 24v205q0 14 10 24t24 10
t24 -10t10 -24v-205zM546 18q0 -14 -10 -24t-24 -10t-24 10t-10 24v205q0 14 10 24t24 10t24 -10t10 -24v-205zM683 18q0 -14 -10 -24t-24.5 -10t-24.5 10t-10 24v205q0 14 10 24t24.5 10t24.5 -10t10 -24v-205zM349 372q10 -9 24 -9t24 9.5t10 23.5t-10 24l-234 233
q-9 10 -23 10t-24 -10t-10 -24t10 -23zM506 770h83v-35h-83v35zM513.5 492q79.5 0 135 56t55.5 135t-55.5 135t-135 56t-135 -56t-55.5 -135t55.5 -135t135 -56zM472 801h152v-97h-59v-23h76v-30h-59q20 -28 62 -47q-13 -21 -20 -34q-38 24 -59 60v-75h-37v73
q-25 -36 -61 -61q-8 15 -19 31q35 20 61 53h-54v30h73v23h-56v97zM431 812l35 -10q-9 -33 -21 -62v-185h-32v116q-9 -15 -19 -29q-2 25 -8 50q27 47 45 120z" />
    <glyph glyph-name="uniE63D" unicode="&#xe63d;" 
d="M742 590h-205h-7q-2 2 -10 17q-24 37 -91 24q-20 -3 -34 -39h-113q-25 0 -42.5 -17.5t-17.5 -42.5v-335q0 -25 17.5 -42.5t42.5 -17.5h460q25 0 42.5 17.5t17.5 42.5v330q0 26 -17.5 44.5t-42.5 18.5zM511 547q-37 -38 -82 -58h-7h-29q11 43 29 79h98q0 -7 -9 -21z
M398 467v0v0zM272 438q15 15 109 34l7 -2q-7 -26 -29 -56t-43 -48q-15 -11 -28 -7.5t-22 12t-13 19.5q-3 14 1.5 24.5t17.5 23.5zM241 455v15h22q-15 -8 -22 -15zM487 609q15 -3 26 -19h-79l2 2q15 13 26 17t25 0zM282 568h65v-67h26v67h17q-7 -29 -7 -79h-22h-120v41
q0 16 12 27t29 11zM742 156h-369v193l-26 -31v-162h-65q-17 0 -29 12t-12 29v179q7 -11 17 -17q1 -1 5 -4q12 -8 19 -12t19 -9.5t21 -4.5t15 8q17 17 53 89q0 3 8 39q-4 -9 -2.5 -39t14.5 -41q17 -18 30.5 -42t10.5 -37l21 31q-41 55 -50 82q-5 17 -20 46q29 -15 49 -20
q11 -4 33 -17t38 -24l15 -12l36 22q-15 -3 -42 11t-44 32q-19 22 -87 13q36 7 41 7t45 19t56 31q16 13 3 44h200q16 0 28 -12.5t12 -28.5v-41h-284l-29 -17l29 -17h282v-258q0 -17 -12 -29t-29 -12z" />
    <glyph glyph-name="uniE63E" unicode="&#xe63e;" horiz-adv-x="1053" 
d="M846 658h-90q-23 65 -62 106q-65 70 -168.5 70t-168.5 -69q-39 -42 -62 -107h-89q-52 0 -88.5 -37t-36.5 -88v-316q0 -13 9 -22t22 -9t22 9t9 22v316q0 26 18.5 44t44.5 18h72q-8 -45 -10 -92q-21 -15 -21 -42q0 -21 15 -36.5t36.5 -15.5t36.5 15.5t15 36.5q0 26 -20 42
q1 32 6 64q3 15 6 28h367q10 -43 11 -92q-21 -15 -21 -42q0 -21 15.5 -36.5t36.5 -15.5t36.5 15.5t15.5 36.5q0 26 -21 42q-1 47 -10 92h74q25 0 42.5 -18t17.5 -44v-475q0 -26 -17.5 -43.5t-42.5 -17.5h-640q-26 0 -44 18t-18 44q0 13 -9 22t-22 9t-22 -9.5t-9 -21.5
q0 -52 36 -88.5t88 -36.5h640q51 0 86.5 36t35.5 88v475q0 52 -35.5 88.5t-86.5 36.5zM362 658q16 38 40 63q47 50 124 50t123 -49q24 -26 40 -64h-327zM362 658z" />
    <glyph glyph-name="uniE63F" unicode="&#xe63f;" 
d="M832 768h-704q-53 0 -90.5 -37.5t-37.5 -90.5v-576q0 -53 37.5 -90.5t90.5 -37.5h704q53 0 90.5 37.5t37.5 90.5v576q0 53 -37.5 90.5t-90.5 37.5zM688 324l-319 -191q-8 -5 -17 -5t-16 4q-16 9 -16 28v383q0 19 16 28t33 -1l319 -191q16 -9 16 -27.5t-16 -27.5z" />
    <glyph glyph-name="uniE640" unicode="&#xe640;" 
d="M829 823h-622q-51 0 -87.5 -36.5t-36.5 -88.5v-622q0 -51 36.5 -87.5t87.5 -36.5h622q51 0 87.5 36.5t36.5 87.5v622q0 52 -36.5 88.5t-87.5 36.5zM799 766h36q25 0 43.5 -18.5t18.5 -44.5v-97h-98v160zM799 546h98v-130h-98v130zM897 358l1 -133h-99v133h98zM239 10h-39
q-26 0 -44 18t-18 44l-1 98h102v-160zM239 225h-102v134h102v-134zM239 415h-102v132h102v-132zM239 605h-102v99q0 25 18 43.5t44 18.5h40v-161zM743 10h-449v348h449v-348zM743 417h-449v349h449v-349zM836 10h-37v160h99v-98q0 -26 -18.5 -44t-43.5 -18z" />
    <glyph glyph-name="uniE641" unicode="&#xe641;" 
d="M917 604h-148q2 3 4 7q44 62 41 132q-1 34 -16 63q-15 31 -42 50t-61 22q-32 4 -65 -6q-66 -21 -110 -84q-4 -5 -7 -11q-4 6 -7 11q-44 63 -111 84q-33 10 -64 6q-34 -3 -61.5 -22t-42.5 -50q-14 -29 -16 -63q-3 -70 41 -132q2 -4 5 -7h-156q-37 0 -64 -26.5t-27 -64.5
v-57q0 -38 27 -64.5t64 -26.5h5v-377q0 -38 26.5 -65t64.5 -27h630q38 0 64.5 27t26.5 65v377q38 0 64 26.5t26 64.5v57q0 38 -26.5 64.5t-64.5 26.5zM574 750q27 43 76 58q15 5 29 5q22 0 39 -12q28 -19 30 -61q1 -24 -9 -49.5t-29 -41.5q-27 -24 -59 -34t-54 -9t-32 8
q-7 5 -12 25t-0.5 51.5t21.5 59.5zM278 740q2 42 29 61q17 12 39 12q14 0 29 -5q50 -15 76 -58q17 -28 21.5 -59.5t0 -51.5t-12.5 -25q-10 -7 -32 -8t-54 9t-58 34q-19 16 -29 41.5t-9 49.5zM77 456v57q0 11 7 18t17 7h376v-107h-376q-10 0 -17 7.5t-7 17.5zM172 -12v377
h305v-402h-280q-10 0 -17.5 7t-7.5 18zM827 -37h-281v402h306v-377q0 -11 -7.5 -18t-17.5 -7zM942 456q0 -10 -7.5 -17.5t-17.5 -7.5h-371v107h371q10 0 17.5 -7t7.5 -18v-57z" />
    <glyph glyph-name="uniE642" unicode="&#xe642;" 
d="M917 604h-148q2 3 4 7q44 62 41 132q-1 34 -16 63q-15 31 -42 50t-61 22q-32 4 -65 -6q-66 -21 -110 -84q-4 -5 -7 -11q-4 6 -7 11q-44 63 -111 84q-33 10 -64 6q-34 -3 -61.5 -22t-42.5 -50q-14 -29 -16 -63q-3 -70 41 -132q2 -4 5 -7h-156q-37 0 -64 -26.5t-27 -64.5
v-57q0 -38 27 -64.5t64 -26.5h5v-377q0 -38 26.5 -65t64.5 -27h630q38 0 64.5 27t26.5 65v377q38 0 64 26.5t26 64.5v57q0 38 -26.5 64.5t-64.5 26.5zM574 750q27 43 76 58q15 5 29 5q22 0 39 -12q28 -19 30 -61q1 -24 -9 -49.5t-29 -41.5q-27 -24 -59 -34t-54 -9t-32 8
q-7 5 -12 25t-0.5 51.5t21.5 59.5zM278 740q2 42 29 61q17 12 39 12q14 0 29 -5q50 -15 76 -58q17 -28 21.5 -59.5t0 -51.5t-12.5 -25q-10 -7 -32 -8t-54 9t-58 34q-19 16 -29 41.5t-9 49.5zM77 456v57q0 11 7 18t17 7h376v-107h-376q-10 0 -17 7.5t-7 17.5zM172 -12v377
h305v-402h-280q-10 0 -17.5 7t-7.5 18zM827 -37h-281v402h306v-377q0 -11 -7.5 -18t-17.5 -7zM942 456q0 -10 -7.5 -17.5t-17.5 -7.5h-371v107h371q10 0 17.5 -7t7.5 -18v-57z" />
    <glyph glyph-name="uniE643" unicode="&#xe643;" 
d="M89 810h61v-853h-61v853zM873 809h62v-852h-62v852zM100 810h835v-61h-835v61zM100 18h834v-61h-834v61z" />
    <glyph glyph-name="uniE644" unicode="&#xe644;" 
d="M707 527l-144 -143l144 -143q10 -11 10 -26t-10.5 -25.5t-25.5 -10.5t-26 10l-143 144l-143 -144q-11 -10 -26 -10t-25.5 10.5t-10.5 25.5t10 26l144 143l-144 143q-10 11 -10 26t10.5 25.5t25.5 10.5t26 -10l143 -144l143 144q11 10 26 10t25.5 -10.5t10.5 -25.5
t-10 -26z" />
    <glyph glyph-name="uniE645" unicode="&#xe645;" 
d="M925 -91h-3h-404q-5 0 -6 4q-3 8 -11 1l-3 -5h-370v22v2q0 23 1 25q1 17 2 29q6 47 17 79q11 29 28 51q6 9 14 17q14 13 31 22q18 10 25 13q8 4 24 10.5t20 8.5q7 3 11.5 6t7.5 11q3 9 13 18q1 1 16.5 13t22.5 20q8 9 11 13q16 15 30 20q3 2 5 2q4 0 4 5q0 20 -8 38
q-3 5 -7 14l-7 13q-3 6 -9 18.5t-7 15.5q-2 3 -3 5q-3 3 -4 3q-13 3 -21 18q-26 45 -26 46q-8 15 -9 27v19q0 4 -4 5q-2 0 -2 3v21q0 1 -2 16q-5 -3 -6 -3q-6 -3 -5 3q0 4 0.5 10t0.5 7q0 4 -3 3q-2 -1 -6 0q-4 0 -3 4q2 7 6 22l1 7q-2 1 -3 1q-4 -2 -4.5 0t0.5 7l3 5
q-11 1 -12 1q-4 1 -2 5q1 3 7 12q1 1 5 8l-8 3t-1 8q4 3 6 5l3 2q-10 3 -11 3q0 1 -1 1h-1q-4 2 -2 5q2 6 10 13q2 3 10 12q0 1 8 12q-2 3 -3 3q-6 5 1 9q1 0 2.5 1t3.5 2t3 1l3 2q-5 2 -6 2q-6 4 -6 5q-2 3 2 6q2 1 5 3t5 4l12 12q2 2 14 15l2 2l-6 2q-1 0 -4.5 0.5
t-4.5 3.5t2 5q9 5 21 7q1 0 7 1.5t9 2.5q6 2 26 14q17 10 24 12l9 3q-1 1 -5.5 10t-4.5 14q7 1 19.5 -2.5t22.5 -1.5q-1 2 -3 8t-2 7.5t1 7.5q7 0 16 -6q12 -9 18 -9q3 -1 4 1q6 8 12 17q6 8 12 9l1 1h2q-4 -17 -4 -24l6 1q9 3 17 7q4 1 10 4t9 4l4 1q1 -2 0 -4t-2 -4.5
t-2 -3.5h8q16 -1 25 -3q9 -1 20 -3q12 -2 28 3q2 -3 -0.5 -6t-3.5 -4q18 2 28 3q1 -3 -7 -13l9 -7q7 -6 11 -9q1 -1 8 -7.5t11 -9.5q2 -2 7 -2q34 -6 42 -8q0 -5 -4 -7q-2 -1 -16 -7l8 -11q2 -3 10.5 -14.5t12.5 -17.5q1 -2 5 -9q1 -2 0 -2.5t-3 -0.5l-5 1q4 -9 4.5 -9.5
t4 -10.5t5.5 -14q1 -4 4 -8t-2 -7l-1 -1q3 -7 8.5 -18.5t8.5 -17.5q-3 0 -9 2t-9 1q1 -14 1 -15q1 -7 5 -22q0 -2 2 -6q2 -3 -1.5 -3.5t-5.5 -0.5q-4 1 -4 -2q0 -2 -1 -5.5t-1 -4.5v-1q2 -5 -1 -8q-4 -3 -8 -3q3 -16 3 -18.5t-1 -6.5h-1q-1 -1 -1 0l-4 3v-9q0 -11 -5 -20v-2
q4 -17 4 -31q-1 -12 -7 -22q-11 -18 -12 -20q-2 -3 -9 -23q-5 -13 -12 -17q-7 -3 -12 -3q-6 0 -9 -5q-6 -9 -10 -24q-5 -19 -16 -35q-9 -15 -13 -23q-4 -10 -2 -24q16 -1 29 -5q11 -5 21 -13q16 -13 26 -34q2 -5 17 -38q2 -3 4 -8.5t3 -7.5l1 -1q17 -14 20 -16q11 -8 26 -13
q17 -5 37 -18q37 -24 40 -26q12 -8 22 -18q9 -10 17 -31q8 -20 17 -56q3 -12 7 -38q2 -8 4 -28q1 -10 1 -19v-22zM679 420q11 -1 16 8q2 5 3 10q4 12 22 43q11 18 8 34q-3 15 -14 21q-4 3 -7 -1q-4 -5 -7 -9q-7 -10 -12 -11q-7 -1 -7 -7q0 -4 -5 -5q-4 0 -5 4q-2 10 -2 11v8
v6q-1 4 -5 6q-16 6 -34 7q-23 1 -42 -3q-21 -5 -34 -13q-2 -1 -2 -2v-24q0 -5 -4 -6q-6 -2 -8 3q-1 4 -2 22l1 6q-15 2 -33 -2v-21q0 -6 -3 -8q-5 -5 -6 1q0 1 -1 16q-2 9 -2 11t-2 3q-23 9 -41 13q-11 1 -20 2q-12 1 -19 0q-10 -2 -20 -6q-7 -3 -13 -9q-4 -3 -3 -16t0 -16
h-18q5 -34 6 -36q5 -29 11 -47q3 -9 14 -37q8 -20 25 -37q5 -5 14 -13q13 -13 18 -17q14 -11 29 -18q29 -12 62 -9q22 2 36 11q3 2 8.5 5t7.5 4q18 11 26 19q13 14 19 22q10 13 18 28q9 14 16 41q5 16 16 62q1 4 0 22q0 6 1 15l4 4l4 -4v-1q3 7 15 10q-1 -2 -4 -5
q-8 -10 -9 -16q-2 -7 3 -9q0 5 1 6q0 1 3 2q1 0 1 -2q2 -11 2 -16l-2 -13h4l-1 -3q0 -2 -1 -3q-2 -1 -3 -1l-2 1l-6 -5q0 -1 -1 -1h-2v4l1 3q-7 -5 -6 -17q5 -3 8 2l1 1l4 2q0 -1 1 -1q-2 -9 -7 -14q-3 -3 -6 -0.5t-4 2.5t-2 -4q0 -1 -2 -13zM532 -44q9 13 9 14q6 11 14 42
q8 28 18 40q4 5 13 14.5t10 11.5q16 18 19 21q24 33 37 90q1 2 -1 3.5t-5.5 4t-3.5 3.5q-19 13 -21 29q-2 14 -1 25l2 35q1 1 2 25l-3 -2q-9 -3 -31 -20q-16 -13 -33 -17q-18 -4 -45 -3q-12 1 -25 4q-14 4 -38 20q-19 14 -31 18v-4q0 -1 1.5 -17t2.5 -24q1 -19 -2 -32
t-10 -18q-11 -9 -17 -14q-8 -6 -8 -12q0 -12 1 -17q6 -30 20 -56q13 -23 26 -30q7 -4 25 -12q21 -9 29 -19q33 -38 38 -79q1 -13 8 -24zM680 539l1 1v20q-3 13 -8 31q-9 31 -9 43q0 1 -1 2q-15 19 -20 25l-6 6h-1q0 -2 0.5 -6.5t0.5 -8t-2 -7.5q-7 9 -7 10q-2 2 -4 5t-3 4
q-4 7 -7 10l-7 8q0 -12 -1 -13q-44 34 -65 45l3 -3q11 -12 12 -12q2 -3 5 -8q2 -4 -2 -4h-12q-2 1 -18 5q0 -3 -3 -2q-1 0 -3.5 1t-3.5 1q-5 2 -14.5 6.5t-13.5 6.5q-5 2 -6.5 1.5t-4.5 -4.5q-1 0 -2 -1t-1 -2q-21 -26 -31 -34l-3 -1l-2 3v6l-2 -4q-9 -14 -10 -14
q-7 -11 -15 -16l-9 -3v1q2 8 3 8q2 6 1 9q-22 -35 -23 -51q-2 0 -3.5 3.5t-1.5 4.5q-6 -12 -7 -13q-5 -11 -5 -13q-1 -3 -3 -23q-3 -23 -3 -24t-4 -13h8l5 11q6 9 21 13q24 7 57 4q22 -2 43 -12q7 -4 13 -2q5 1 25 -1q18 -1 27 5q13 9 40 12q19 2 36 1q21 -2 38 -8
q4 -1 5 -5q1 0 3 -4zM348 514q-8 5 -9 6q-5 3 -7 4q-7 2 -9 -1q-8 -16 -5 -32q2 -12 12 -29q3 -6 9.5 -17t9.5 -15q3 -6 6 -10q4 -5 11 -6q-4 22 -5 24q-1 4 -1.5 4t-4.5 -1t-5 2q-2 4 4 5l5 1l-1 5q-1 5 -6 6l1 -3l1 -4q-4 1 -5 1l-1 1q-9 9 -8 22q0 9 8 12l-1 -7v-7
q2 0 3 1l2 1q-3 25 -4 37zM366 753q7 8 21.5 18.5t18.5 14.5q-19 -9 -22 -10q-1 -1 -9 -2q-2 0 -3 1q0 1 1 2t7 6q-4 1 -7 -2q-5 -5 -21 -22l-2 -2v-1q8 5 15 11q4 -6 1 -14zM492 -13q0 7 -5 7q-2 0 -4.5 -2.5t-2.5 -4.5t2 -4.5t3 -2.5q7 0 7 7zM692 469q4 -1 5 4q2 7 -3 10
q-1 -2 -1 -4.5t-0.5 -5.5t-0.5 -4zM355 466v4l-0.5 0.5t-1.5 0.5l-5 -5h7zM492 -13q0 -7 -7 -7q-1 0 -3 2.5t-2 4.5t2.5 4.5t4.5 2.5q5 0 5 -7zM692 469q0 2 0.5 6.5t1.5 7.5q5 -3 3 -10q-1 -5 -5 -4zM355 466h-7l5 5q1 0 1.5 -0.5l0.5 -0.5v-4zM622 533q2 -10 3 -21
q4 -2 0 -6q-4 -5 -12 -5q-16 -1 -27 4l-8 5l1 1h8q-3 11 -2 16q0 1 -1 1q-10 -9 -12 -12q2 -5 3 -6h-1v-1q-2 0 -6 1t-6 2q5 14 19 23q16 9 37 7q14 -2 30 -13l12 -10l4 -6q-22 -2 -26 -3q-2 0 -4 1l-3 2l3 3l9 2h3q-5 7 -24 15zM602 530h-4q-6 -2 -6 -5q-1 -3 2 -5
q4 -3 7.5 -1.5t4.5 5.5q2 6 -4 6zM472 509q-1 8 -11 15q-1 -8 -1 -9l-1 -8h8v-1q-4 -4 -12 -7q-10 -3 -21 -3q-9 1 -14 6q-3 3 0 5q2 1 2 3q-2 9 0 17q-1 2 -7 0q-8 -2 -18 -11q6 -1 6 -2q9 -2 10 -2t1 -2q-1 -1 -2 -1q-13 -1 -24 3l-1 1q4 10 15 16.5t26 7.5q17 2 31 -3
q13 -5 18 -14h1q0 -2 2 -9q-3 0 -8 -2zM443 526q-9 1 -10 1q-3 0 -4 -2q-2 -3 1 -6q3 -4 7 -3q6 2 6 10zM587 374q-40 -9 -45 -11q-9 -2 -23 0q-4 1 -15.5 2.5t-17.5 2.5h-7h-6q-8 0 -10 6h4h25q11 -1 22 -3q15 -3 33 2q11 3 23 5q9 2 17 -4zM488 350q29 -15 76 1
q-3 -6 -10 -10q-9 -6 -22 -7q-20 -2 -33 6q-7 3 -11 10zM710 478q4 11 5 12q4 12 3 18q0 1 -3 14q11 -5 9 -23q-3 -19 -14 -21zM542 405l1 3q6 8 15 9q3 0 5 -2q5 -4 -1 -7q-8 -4 -20 -3zM509 406h-11q-2 0 -4 1l-3 1q-2 1 -2 3q0 5 4 5q10 0 16 -10zM555 477q2 -3 12 -29
q-7 4 -10.5 12.5t-1.5 16.5zM662 486l3 5q6 6 6 9h1l2 1q2 -1 2 -3q-1 -6 -7 -10q-1 0 -6 -2h-1zM377 491q4 -1 6 -8q-8 0 -6 8zM448 191q7 -12 14.5 -37t10.5 -33q-20 23 -25 70zM596 202l2 -3q-1 -37 -11 -59q0 11 4 32t4 29zM388 575q3 6 10 10q10 6 26 7q29 1 51 -12
q6 -3 15 -11l4 -8q1 -2 0 -3t-4 -1q-4 4 -26 8q-32 7 -75 10h-1zM549 561q2 9 12 17q14 10 38 16q17 4 30 2q14 -3 30 -16q-3 -4 -8 -4q-2 0 -7 0.5t-8 0.5q-7 1 -17 0q-8 -1 -17 -3q-34 -6 -45 -12q-4 -3 -8 -1zM336 473l-5 6q-6 13 -1 25t15 5q4 -3 0 -4q-3 -1 -7 0
q-2 0 -3 -2q-3 -4 -1 -12q0 -2 1 -5.5t1 -4.5t1 -8h-1z" />
    <glyph glyph-name="uniE646" unicode="&#xe646;" 
d="M888 598q-10 9 -23 8.5t-22 -10.5l-427 -454l-233 230q-10 9 -23 9t-22.5 -9.5t-9.5 -23t10 -22.5l256 -253h1q1 -1 7 -4q0 -1 1 -1.5t2 -1.5q6 -2 12 -2t12 3q1 0 2 1t2 1q5 3 7 5v0l449 479q9 9 9 22.5t-10 22.5z" />
    <glyph glyph-name="uniE647" unicode="&#xe647;" 
d="M398 117q-15 9 -6 25q4 6 11.5 7.5t13.5 -1.5q20 -13 45 -21q23 -7 48.5 -7t48.5 7q24 8 45 21q6 3 13.5 1.5t11.5 -7.5q9 -16 -6 -25q-26 -17 -54 -25t-58.5 -8t-58.5 8t-54 25zM512 861q41 0 72 -27.5t37 -67.5q8 2 18 2q28 0 50 -21q10 -10 16 -23q9 2 16 2
q26 0 45 -18q19 -19 19 -46q0 -17 -9 -32q2 -1 13 -13q86 -94 98 -209q6 -24 3 -71t-6.5 -74t-10.5 -78q-13 -82 -13 -126q0 -62 18 -101q6 -12 2 -23.5t-16 -16.5q-4 -2 -9 -3q-40 -7 -76 0q-37 7 -64 29q-31 24 -41 64l-3 -2q-74 -42 -160 -42t-162 44q-11 -39 -41 -63
t-66.5 -30t-75.5 0q-12 2 -19.5 12.5t-5.5 22.5q0 2 3 8q18 40 18 101q0 43 -12 126q-23 143 -12 224q15 114 101 208l2 2l9 9q-11 16 -11 34q0 27 19 46q19 18 44 18q7 0 18 -2q4 12 15 23l2 2q20 19 48 19q10 0 18 -2q6 40 37 67.5t72 27.5zM623 629q-111 21 -222 0
q-28 -5 -44 -9.5t-36 -15t-35 -26.5l-2 -2q-72 -80 -86 -175q-9 -69 11 -207q13 -84 14 -135q0 -49 -10 -87q44 3 70 37.5t0 73.5q-25 38 -34 87.5t-3.5 96.5t10.5 70.5t10 39.5q1 2 2 3q3 7 10 10t14 0q2 -1 8.5 -4t9.5 -4q74 -28 134 -2q56 25 88 94v1q4 7 7 18h1v1
q9 24 9 48q1 7 6 12t12.5 5t13 -5.5t5.5 -12.5q-1 -30 -10 -55q26 -66 62 -103q42 -42 112 -60q11 -3 13 -14q23 -124 -15 -198q-15 -30 -18 -57.5t11.5 -50t49.5 -28.5q9 -3 18 -3q-10 38 -10 87q0 44 13 135q22 143 15 207q-11 97 -83 175q-16 18 -36.5 28.5t-36 14.5
t-48.5 10zM512 823q-31 0 -52.5 -21.5t-21.5 -51.5v-6v0l1 -5q1 -8 -5 -15q-5 -5 -12.5 -5.5t-12.5 4.5q-5 4 -10 6h-1q-6 3 -13 3q-13 0 -23 -9l-1 -1q-10 -11 -10 -25q0 -8 -5 -13t-12.5 -6t-12.5 4q-3 3 -8 5h-1q-5 3 -10 3q-10 0 -18 -8t-8 -20q0 -9 6 -17q5 -6 13 -8
q49 19 100 28q117 22 234 0q51 -9 100 -28q9 3 13 8q6 7 6 17q0 12 -7 20q-8 8 -20 8q-4 0 -9 -3q-5 -1 -8 -5q-7 -5 -13 -4q-7 0 -12.5 5t-5.5 13v1q0 14 -10 25v0q-10 10 -24 10q-7 0 -13 -3q-5 -1 -11 -6q-5 -6 -14 -4q-8 1 -12.5 6.5t-3.5 13.5l1 5v6q0 30 -21.5 51.5
t-52.5 21.5zM729 291q-71 21 -117 67q-33 33 -56 83q-37 -68 -98 -95q-71 -32 -161 2h-1q-41 -156 19 -235q32 -41 86 -64.5t110 -23.5q86 0 140.5 36.5t72.5 95.5t5 134zM408 282q13 0 22 -9t9 -21.5t-9 -21.5t-22 -9q-12 0 -21 9t-9 21.5t9 21.5t21 9zM613 282q12 0 21 -9
t9 -21.5t-9 -21.5t-21.5 -9t-21.5 9t-9 21.5t9 21.5t22 9z" />
    <glyph glyph-name="uniE648" unicode="&#xe648;" 
d="M832 116q-26 12 -68.5 25.5t-72.5 21.5l-29 8v69q38 -1 69.5 0t52.5 3t36 4t24.5 5t14.5 5t9 5l5 3q-8 14 -16 32t-13.5 37t-10.5 38t-8.5 39.5t-6 37.5t-4 34.5t-2.5 28t-1.5 21t-0.5 11.5q-15 126 -63 204q-36 46 -74.5 75.5t-71.5 40t-64 12.5t-55 -5t-42 -15t-28 -15
l-10 -7q-30 1 -56 -8.5t-41 -22t-27.5 -31.5t-16.5 -28.5t-8 -20.5l-1 -3q-9 -26 -17.5 -67t-13.5 -75.5t-6 -36.5q-6 -43 -13.5 -81t-15 -65.5t-15.5 -50t-16 -38t-13.5 -25.5t-10 -16.5t-4.5 -7.5q46 -16 229 -16q1 -45 1 -71q-55 -8 -128 -38t-93 -42q-74 -48 -73 -170
l1 -25h891q7 45 -2.5 84t-24 61t-38 40.5t-34.5 24.5t-23 10zM554 222l-5 -2t-10.5 -3.5t-14 -3t-17.5 -1.5t-20 2.5t-22 7.5q-3 1 -11.5 5t-25 16.5t-32.5 30t-34 48.5t-30 68q-1 1 -6 3l-12 4q-5 2 -13 7.5t-14 12.5l-1 1q-5 5 -9 10.5t-10.5 18t-6 23.5t11 24t32.5 22
q70 35 99 141q7 8 12 10q1 -5 4 -12t15 -25.5t26.5 -33.5t39 -28.5t53.5 -16.5q0 3 -1.5 5.5t-3.5 7t-2.5 18.5t2.5 40q1 0 12 -15t25.5 -32t37.5 -32.5t45 -18.5q3 0 14.5 -4.5t25 -8.5t24.5 -4q3 -1 7.5 -3.5t10 -9t7.5 -15t-2 -22.5t-16 -30q-12 -23 -53 -36l-3 -9
q-3 -8 -8 -20t-12.5 -27.5t-18.5 -31.5t-24 -31.5t-30 -28.5t-36 -21z" />
    <glyph glyph-name="uniE649" unicode="&#xe649;" 
d="M916 107q5 -15 7.5 -38.5t2.5 -47t-3.5 -44.5t-10.5 -32q-5 -7 -28.5 -15t-57.5 -15.5t-76.5 -14t-84.5 -11.5t-81.5 -8t-68.5 -3q-44 0 -104 6.5t-117 15.5t-100 18.5t-52 16.5q-11 8 -16.5 49t4.5 105q6 37 30 56t56.5 30t67 20t60.5 26q21 13 32.5 25t16 24t4.5 25
t-1 28q-2 24 -15.5 37t-30.5 27q-8 7 -14 19.5t-11 25.5q-5 15 -10 31q-7 2 -14 7q-6 5 -13 14t-12 26t-3.5 30.5t5.5 23.5q4 11 12 21q-1 38 4 76q4 32 14.5 68t30.5 65q19 27 42.5 44.5t47.5 27.5t48.5 14t47.5 4q29 0 55.5 -7t49.5 -18t41 -24.5t29 -27.5
q25 -32 37.5 -70.5t17.5 -72.5q6 -40 5 -80q7 -4 11 -12q4 -7 6.5 -18t0.5 -27q-3 -21 -9.5 -33.5t-14.5 -19.5q-9 -8 -19 -11q-4 -16 -9 -31q-5 -13 -11.5 -25.5t-14.5 -19.5q-9 -8 -17 -13.5t-14 -11.5t-10 -14.5t-6 -20.5q-3 -15 -2 -30.5t8 -31t23 -29.5t43 -25
q25 -10 54.5 -17.5t57 -18t49 -26.5t30.5 -42zM532 -57q5 0 15.5 6.5t20.5 15.5t17.5 18t7.5 14q0 6 -3 21t-7 33t-8 35.5t-7 28.5q10 8 17 17.5t7 19.5q0 8 -5.5 16.5t-12.5 14.5q-8 7 -17 14h-50q-10 -7 -17 -14q-6 -6 -11 -14t-5 -16q0 -6 7.5 -16t18.5 -19q-3 -9 -8 -26
t-9.5 -35.5t-8 -35t-3.5 -24.5q0 -5 7.5 -14t18 -18t20.5 -15.5t15 -6.5z" />
    <glyph glyph-name="uniE64C" unicode="&#xe64c;" horiz-adv-x="1157" 
d="M1017 172h-183v-237h-62v1h-648v-1h-61v662h236v236h779v-661h-61zM124 -3h648v539h-648v-539zM1017 772h-657v-175h474v-364h183v539z" />
  </font>
</defs>
</svg>
